<svg xmlns="http://www.w3.org/2000/svg" width="100" height="60" viewBox="0 0 26.5 15.9"><path fill="#dedede" d="M8.3 17.6l-1.8 3.7c-.1.4-8 4.7-7.9 5.4.2.7 10.2 5.3 10.6 5.1.5-.1-.8-9.1-.7-9.5l1.8-3.7z" paint-order="stroke fill markers"/><g fill="#b4b4b4"><path style="line-height:normal;text-indent:0;text-align:start;text-decoration-line:none;text-decoration-style:solid;text-decoration-color:#000;text-transform:none;isolation:auto;mix-blend-mode:normal" d="M18.9 17.2a2 2 0 0 0-.8.2c-.5.2-1 .6-1.5 1.1l-1.2 1.3-1.3-1.3c-.6-.5-1-.9-1.6-1-.4-.3-.9-.4-1.3-.1-.4.2-.5.6-.6 1.2 0 .4 0 .9.2 1.5.1-.2.3-.3.5-.3l-.1-1.2c0-.4.1-.7.3-.8h.3l.5.1c.4.2 1 .5 1.4 1 .4.4.9.8 1.3 1.4l-1 1.5c-.7 0-1.4 0-2 .2v-.2h-.6v.3c-.6 0-1.1.2-1.6.3-.7.2-1.3.5-1.8.8-.4.3-.7.7-.7 1 0 .5.3.9.7 1.2l1.8.8 1.7.3-.5 1.7-.3 2c0 .4.3.9.6 1 .4.3.9.2 1.4 0l1.3-1a.9.9 0 0 1-.4-.3c-.4.4-.8.7-1.2.8-.4.2-.6.2-.8.1-.2 0-.3-.3-.3-.7 0-.5 0-1 .2-1.8l.5-1.7 2 .2 1 1.5v.1l.4.4 1.3 1.3c.5.5 1 .8 1.5 1 .5.3 1 .3 1.4.1.3-.2.5-.6.5-1.2 0-.5 0-1.1-.2-1.9l-.6-1.6c.7 0 1.2-.2 1.7-.3l1.8-.8c.4-.3.7-.7.7-1.1 0-.4-.3-.8-.7-1.1-.4-.3-1-.5-1.6-.7v.4l-.1.1 1.4.6c.3.3.4.5.4.7 0 .2 0 .4-.4.7l-1.7.6-1.7.4-.8-1.7a23.4 23.4 0 0 0 1.5-4c.2-.7.3-1.3.2-1.8 0-.6-.2-1-.6-1.2a1 1 0 0 0-.5-.1zm0 .5h.3c.1.1.3.4.3.8s0 1-.2 1.7l-.6 1.8-1.9-.2-1.1-1.5c.4-.6.9-1 1.3-1.4.5-.5 1-.9 1.3-1l.6-.2zm-3.5 3l.7 1a27.5 27.5 0 0 0-1.5 0l.8-1zm0 1.6h1.1a26.4 26.4 0 0 1 1.2 2 26.4 26.4 0 0 1-1.2 2 26.4 26.4 0 0 1-2.2 0 26.4 26.4 0 0 1-1.2-2 26.4 26.4 0 0 1 1.1-2h1.2zm1.8 0l1.3.2-.5 1.2a27.4 27.4 0 0 0-.8-1.4zm-3.6 0a27.5 27.5 0 0 0-.8 1.4l-.6-1.2 1.4-.2zm-2 .3l.9 1.7-.8 1.7c-.7 0-1.3-.2-1.8-.4L8.3 25c-.3-.3-.5-.5-.5-.7 0-.2.2-.4.5-.7L10 23l1.7-.3zm6.4 2.2l.6 1.3-1.4.1a27.5 27.5 0 0 0 .8-1.4zm-5.2 0a27.4 27.4 0 0 0 .8 1.4h-1.4l.6-1.3zm6 1.8l.6 1.7c.2.7.2 1.3.2 1.7 0 .4-.1.7-.3.8l-.8-.1c-.4-.2-1-.5-1.5-1l-1.2-1.4 1-1.5 2-.2zm-2.6.2c-.3.4-.5.8-.8 1l-.8-1a27.5 27.5 0 0 0 1.6 0z" color="#000" font-family="sans-serif" font-weight="400" overflow="visible" white-space="normal"/><path d="M11.5 20a.8.8 0 0 0-.8.8.8.8 0 0 0 .8.9.8.8 0 0 0 .8-.9.8.8 0 0 0-.8-.8zm8.6 1.7a.8.8 0 0 0-.8.8.8.8 0 0 0 .8.9.8.8 0 0 0 .9-.9.8.8 0 0 0-.9-.8zm-5.6 6.8a.8.8 0 0 0-.9.8.8.8 0 0 0 .9.8.8.8 0 0 0 .8-.8.8.8 0 0 0-.8-.8zM15.3 23.5a.8.8 0 1 0 0 1.6.8.8 0 0 0 0-1.6z"/><path d="M15.9 24.6a.8.8 0 1 0 0 1.6.8.8 0 0 0 0-1.6z"/><path d="M16.6 23.4a.8.8 0 1 0 0 1.7.8.8 0 0 0 0-1.7z"/><path d="M16 22.5a.8.8 0 1 0 0 1.6.8.8 0 0 0 0-1.6z"/><path d="M14.9 22.4a.8.8 0 1 0 0 1.7.8.8 0 0 0 0-1.7z"/><path d="M14.2 23.5a.8.8 0 1 0 0 1.7.8.8 0 0 0 0-1.7z"/><path d="M14.9 24.5a.8.8 0 1 0 0 1.6.8.8 0 0 0 0-1.6z"/></g><path fill="#dedede" d="M26.3.1l-1.5.8-.2.5-.4-.1-2 1.3.5 1.5L21.5 3l-2.6 1.7 1.7 1.8c-.5 0-2.1-.8-2.4-1-1 1-2 2-2.6 3.1.2.3 1.8 1 2.1 1.2-.4 0-2.3-.1-2.5-.3-.8 1.3-.7 2.8-.9 4.4 2.1.5 3.5 0 5-.5l-1.5-.7c.5 0 2.3.2 2.8 0 1.2-.6 1.7-1 2.3-2l-2.5-1.1h3.1c.7-1.2 1-2 1.5-3.6-.4 0-1.2-.4-1.6-.7l1.8-.3.4-1.4-1-.4c.4 0 .8-.2 1-.1l.7-3z"/><path fill="#b4b4b4" d="M11 14.7C17.7 13.3 21.5 5.9 26.3 0c-4.2 5.5-6.5 12.2-13.8 15.7z"/><path fill="none" stroke="#b4b4b4" stroke-linecap="round" stroke-width=".6" d="M1 5.5h15.8M4.6 7.6h10.6M8.5 9.6h5.7"/></svg>