<?xml version="1.0" encoding="UTF-8" standalone="no"?>
<!-- Created with Inkscape (http://www.inkscape.org/) -->

<svg
   xmlns:dc="http://purl.org/dc/elements/1.1/"
   xmlns:cc="http://creativecommons.org/ns#"
   xmlns:rdf="http://www.w3.org/1999/02/22-rdf-syntax-ns#"
   xmlns:svg="http://www.w3.org/2000/svg"
   xmlns="http://www.w3.org/2000/svg"
   xmlns:xlink="http://www.w3.org/1999/xlink"
   xmlns:sodipodi="http://sodipodi.sourceforge.net/DTD/sodipodi-0.dtd"
   xmlns:inkscape="http://www.inkscape.org/namespaces/inkscape"
   width="512"
   height="512"
   viewBox="0 0 135.46667 135.46666"
   version="1.1"
   id="svg2745"
   inkscape:version="0.92.4 (unknown)"
   sodipodi:docname="icon.svg"
   inkscape:export-filename="/home/jdranczewski/Documents/Programming/WikiTranslator/img/icon-192.png"
   inkscape:export-xdpi="36.000004"
   inkscape:export-ydpi="36.000004">
  <defs
     id="defs2739">
    <linearGradient
       inkscape:collect="always"
       id="linearGradient3886">
      <stop
         style="stop-color:#8b8b8b;stop-opacity:1"
         offset="0"
         id="stop3882" />
      <stop
         style="stop-color:#b4b4b4;stop-opacity:0;"
         offset="1"
         id="stop3884" />
    </linearGradient>
    <linearGradient
       inkscape:collect="always"
       id="linearGradient3868">
      <stop
         style="stop-color:#0277b1;stop-opacity:1"
         offset="0"
         id="stop3864" />
      <stop
         style="stop-color:#039be5;stop-opacity:0.25555557"
         offset="1"
         id="stop3866" />
    </linearGradient>
    <linearGradient
       inkscape:collect="always"
       id="linearGradient3333">
      <stop
         style="stop-color:#039be5;stop-opacity:1"
         offset="0"
         id="stop3329" />
      <stop
         style="stop-color:#0280bc;stop-opacity:1"
         offset="1"
         id="stop3331" />
    </linearGradient>
    <clipPath
       clipPathUnits="userSpaceOnUse"
       id="clipPath3561">
      <rect
         y="270.54163"
         x="0"
         height="26.458334"
         width="46.101295"
         id="rect3563"
         style="display:inline;opacity:1;fill:url(#linearGradient3565);fill-opacity:1;fill-rule:nonzero;stroke:none;stroke-width:1.31501329;stroke-linecap:round;stroke-linejoin:round;stroke-miterlimit:4;stroke-dasharray:none;stroke-dashoffset:0;stroke-opacity:1;paint-order:stroke fill markers" />
    </clipPath>
    <linearGradient
       inkscape:collect="always"
       xlink:href="#linearGradient3333"
       id="linearGradient3565"
       gradientUnits="userSpaceOnUse"
       gradientTransform="translate(0,-71.580796)"
       x1="34.395832"
       y1="286.08588"
       x2="47.490356"
       y2="296.86768" />
    <linearGradient
       inkscape:collect="always"
       xlink:href="#linearGradient3868"
       id="linearGradient3870"
       x1="115.64547"
       y1="29.13336"
       x2="176.95038"
       y2="125.81871"
       gradientUnits="userSpaceOnUse"
       gradientTransform="matrix(0.63615836,0,0,0.63615836,7.6827116,-69.795404)" />
    <linearGradient
       inkscape:collect="always"
       xlink:href="#linearGradient3886"
       id="linearGradient3888"
       x1="23.690374"
       y1="27.429344"
       x2="98.212074"
       y2="118.94408"
       gradientUnits="userSpaceOnUse"
       gradientTransform="matrix(0.63615836,0,0,0.63615836,7.6827116,-69.795404)" />
  </defs>
  <sodipodi:namedview
     id="base"
     pagecolor="#ffffff"
     bordercolor="#666666"
     borderopacity="1.0"
     inkscape:pageopacity="0.0"
     inkscape:pageshadow="2"
     inkscape:zoom="1.6757812"
     inkscape:cx="256"
     inkscape:cy="256"
     inkscape:document-units="mm"
     inkscape:current-layer="layer1"
     showgrid="false"
     showguides="false"
     inkscape:window-width="1920"
     inkscape:window-height="1053"
     inkscape:window-x="0"
     inkscape:window-y="0"
     inkscape:window-maximized="1"
     fit-margin-top="3"
     fit-margin-left="3"
     fit-margin-right="3"
     fit-margin-bottom="3"
     inkscape:guide-bbox="true"
     units="px">
    <sodipodi:guide
       position="9.9551461,17.131252"
       orientation="0,1"
       id="guide3748"
       inkscape:locked="false" />
  </sodipodi:namedview>
  <metadata
     id="metadata2742">
    <rdf:RDF>
      <cc:Work
         rdf:about="">
        <dc:format>image/svg+xml</dc:format>
        <dc:type
           rdf:resource="http://purl.org/dc/dcmitype/StillImage" />
        <dc:title></dc:title>
      </cc:Work>
    </rdf:RDF>
  </metadata>
  <g
     inkscape:groupmode="layer"
     id="layer1"
     inkscape:label="back">
    <rect
       style="opacity:1;fill:#ededed;fill-opacity:1;fill-rule:nonzero;stroke:none;stroke-width:6.63384485;stroke-linecap:round;stroke-linejoin:round;stroke-miterlimit:4;stroke-dasharray:none;stroke-dashoffset:0;stroke-opacity:1;paint-order:stroke fill markers"
       id="rect859"
       width="135.46666"
       height="135.46666"
       x="0"
       y="5.0862627e-07"
       ry="7.7364411" />
    <path
       style="opacity:1;fill:#dddddd;fill-opacity:1;fill-rule:nonzero;stroke:none;stroke-width:6.63384485;stroke-linecap:round;stroke-linejoin:round;stroke-miterlimit:4;stroke-dasharray:none;stroke-dashoffset:0;stroke-opacity:1;paint-order:stroke fill markers"
       d="M 135.46666,7.7364416 V 127.73022 c 0,4.28599 -3.45045,7.73644 -7.73644,7.73644 H 7.7364411 C 57.125438,104.44538 99.99112,70.676902 135.46666,7.7364416 Z"
       id="rect861"
       inkscape:connector-curvature="0"
       sodipodi:nodetypes="csscc" />
  </g>
  <g
     inkscape:groupmode="layer"
     id="layer2"
     inkscape:label="0"
     style="display:inline"
     transform="translate(3.0002422,98.739544)">
    <path
       sodipodi:nodetypes="ccsccccccccc"
       inkscape:connector-curvature="0"
       id="path3905"
       d="m 54.399622,-34.206628 c -1.353021,3.889589 -1.696363,7.352251 2.662671,10.33136 0.78626,0.746824 1.124164,0.743903 1.954447,0.57776 0.830282,-0.166142 2.024479,-0.766167 3.357226,-1.461176 1.332749,-0.695034 2.823584,-1.499241 4.644453,-1.694765 1.820869,-0.195548 3.946217,0.503099 5.546506,2.245192 4.885994,7.474971 3.450008,12.106799 -0.817078,18.6395184 l 2.033479,1.9138634 H 121.17264 V -67.270713 l -2.03348,-1.913864 z"
       style="display:inline;opacity:1;fill:#0278b1;fill-opacity:1;fill-rule:nonzero;stroke:none;stroke-width:3.16178918;stroke-linecap:round;stroke-linejoin:round;stroke-miterlimit:4;stroke-dasharray:none;stroke-dashoffset:0;stroke-opacity:1;paint-order:stroke fill markers" />
  </g>
  <g
     inkscape:groupmode="layer"
     id="layer4"
     inkscape:label="1"
     style="display:inline"
     transform="translate(3.0002422,98.739544)">
    <path
       style="opacity:1;fill:#039be5;fill-opacity:1;fill-rule:nonzero;stroke:none;stroke-width:3.16178918;stroke-linecap:round;stroke-linejoin:round;stroke-miterlimit:4;stroke-dasharray:none;stroke-dashoffset:0;stroke-opacity:1;paint-order:stroke fill markers"
       d="m 71.765248,-69.184577 c 0.376617,1.167598 1.144003,3.75316 1.601578,6.789002 0.621847,4.125745 0.866677,9.226912 -1.961905,12.961729 -1.438631,1.899555 -3.575794,2.724615 -5.452075,2.699946 -1.87628,-0.02467 -3.542642,-0.633667 -5.044536,-1.145583 -1.501893,-0.511892 -2.844348,-0.920797 -3.718794,-0.934358 -0.874449,-0.01347 -1.219316,0.04225 -1.883626,1.018848 -1.582639,2.326669 -2.837945,7.125177 -2.939747,11.674501 -0.101801,4.549324 1.051714,8.801239 2.662671,10.331361 0.786261,0.746824 1.124165,0.743905 1.954447,0.577762 0.830282,-0.166142 2.024479,-0.766167 3.357226,-1.461176 1.332749,-0.695034 2.823584,-1.499243 4.644455,-1.694767 1.82087,-0.195548 3.946215,0.503099 5.546504,2.245194 3.283046,3.573961 3.212285,8.908149 2.704918,13.247498 -0.382053,3.2674874 -1.137725,6.1016246 -1.488517,7.3058814 H 119.13917 V -69.184577 Z"
       id="rect3327"
       inkscape:connector-curvature="0"
       sodipodi:nodetypes="cccscccccsccsccccc" />
  </g>
  <g
     inkscape:groupmode="layer"
     id="layer5"
     inkscape:label="2"
     style="display:inline"
     transform="translate(3.0002422,98.739544)">
    <path
       inkscape:connector-curvature="0"
       id="path3890"
       d="m 8.2935383,-5.5674979 2.0334787,1.9138609 h 59.355316 c -4.38e-4,-0.2104792 0.03227,-0.419701 0.09692,-0.6200001 0,-7.2e-6 1.057664,-3.2663093 1.512118,-7.1530589 0.454452,-3.886747 0.08653,-8.154059 -1.676128,-10.072921 -0.922555,-1.004285 -2.672848,-2.920084 -3.461595,-2.835378 -0.788751,0.08471 -0.643188,2.460247 -1.929598,3.131092 -1.286412,0.67087 -2.697137,1.492032 -4.418318,1.836411 -1.721182,0.344403 -3.883987,-0.06259 -5.504262,-1.60158 -3.202107,-3.041466 -4.022919,-8.176867 -3.907653,-13.327018 0.115266,-5.150157 1.268401,-10.366236 3.630575,-13.83893 1.3081,-1.92307 3.423142,-2.799235 5.259491,-2.770767 1.836349,0.02844 3.456575,0.636525 4.950107,1.145583 1.493533,0.509052 2.853264,0.921877 3.803282,0.934355 0.950017,0.0125 1.441891,-0.107187 2.206675,-1.117004 1.578263,-2.083923 1.748818,-6.253422 1.192796,-9.942459 -0.55603,-3.689014 -1.633888,-6.709483 -1.633888,-6.709483 -0.0799,-0.216081 -0.121926,-0.444314 -0.124259,-0.674675 l -2.033469,-1.913864 z"
       style="display:inline;opacity:1;vector-effect:none;fill:#8f8f8f;fill-opacity:1;stroke:none;stroke-width:1.12210393;stroke-linecap:butt;stroke-linejoin:miter;stroke-miterlimit:4;stroke-dasharray:none;stroke-dashoffset:0;stroke-opacity:1"
       sodipodi:nodetypes="ccccscscccsscscsccccc" />
  </g>
  <g
     inkscape:groupmode="layer"
     id="layer6"
     inkscape:label="3"
     style="display:inline"
     transform="translate(3.0002422,98.739544)">
    <path
       style="opacity:1;vector-effect:none;fill:#b4b4b4;fill-opacity:1;stroke:none;stroke-width:1.12210393;stroke-linecap:butt;stroke-linejoin:miter;stroke-miterlimit:4;stroke-dasharray:none;stroke-dashoffset:0;stroke-opacity:1"
       d="M 8.2935383,-69.183334 V -5.5674979 H 67.648854 a 2.004833,2.004833 0 0 1 0.09692,-0.6200002 c 0,-4.8e-6 1.057665,-3.2663065 1.512119,-7.1530569 0.454451,-3.886749 0.08653,-8.154059 -1.676128,-10.072921 -0.922556,-1.004284 -1.380652,-1.051369 -2.169399,-0.966663 -0.788751,0.08471 -1.935385,0.591532 -3.221794,1.262378 -1.286412,0.670869 -2.697138,1.492029 -4.418319,1.836408 -1.721182,0.344404 -3.883987,-0.06259 -5.504261,-1.601578 -3.202108,-3.041466 -4.022919,-8.176866 -3.907653,-13.32702 0.115265,-5.150154 1.2684,-10.366239 3.630574,-13.838933 1.3081,-1.923067 3.423143,-2.799234 5.259489,-2.770766 1.836351,0.02844 3.456577,0.636527 4.950109,1.145582 1.493533,0.509055 2.853264,0.92188 3.803282,0.934358 0.950018,0.0125 1.441891,-0.107187 2.206676,-1.117006 1.578262,-2.083923 1.748817,-6.253422 1.192795,-9.94246 -0.556025,-3.689013 -1.633883,-6.709482 -1.633883,-6.709482 a 2.0042497,2.0042497 0 0 1 -0.124259,-0.674676 z"
       id="path3290"
       inkscape:connector-curvature="0" />
  </g>
  <g
     inkscape:groupmode="layer"
     id="layer9"
     inkscape:label="shadow"
     style="display:inline"
     transform="translate(2.5648845,98.304192)">
    <path
       style="display:inline;opacity:1;fill:url(#linearGradient3870);fill-opacity:1;fill-rule:nonzero;stroke:none;stroke-width:3.16178918;stroke-linecap:round;stroke-linejoin:round;stroke-miterlimit:4;stroke-dasharray:none;stroke-dashoffset:0;stroke-opacity:1;paint-order:stroke fill markers"
       d="m 104.18992,-51.514551 -20.722352,2.43281 0.109327,0.147869 -1.477324,0.05343 4.989866,7.669932 h -7.57426 l 4.687938,7.206482 -4.287859,0.588943 0.933117,1.346867 -1.816532,0.706981 7.544439,11.597465 -3.710095,2.450204 7.924645,12.1801974 h 28.78369 V -32.997604 l -11.88324,-18.264704 -3.11245,0.460967 z"
       id="rect3860"
       inkscape:connector-curvature="0" />
    <path
       style="display:inline;opacity:1;vector-effect:none;fill:url(#linearGradient3888);fill-opacity:1;stroke:none;stroke-width:1.12210393;stroke-linecap:butt;stroke-linejoin:miter;stroke-miterlimit:4;stroke-dasharray:none;stroke-dashoffset:0;stroke-opacity:1"
       d="m 22.01243,-49.081741 -10.502827,1.750676 7.755666,11.920517 3.231734,13.778046 10.735173,16.5003561 h 34.852036 a 2.004833,2.004833 0 0 1 0.09692,-0.6200002 c 0,-4.8e-6 1.057667,-3.2663065 1.51212,-7.1530569 0.07903,-0.675923 0.122816,-1.361803 0.149096,-2.046392 l -5.546506,-8.524771 c -0.513907,0.214639 -1.074493,0.483448 -1.669918,0.793954 -1.286409,0.67087 -2.697137,1.492032 -4.418319,1.836411 -1.721181,0.344404 -3.883986,-0.06259 -5.504261,-1.601578 -3.202107,-3.041466 -4.022916,-8.176866 -3.90765,-13.32702 0.07187,-3.210978 0.547161,-6.447778 1.467387,-9.271513 l -2.626639,-4.035629 -3.874105,0.743013 -0.470907,-0.743013 -0.244773,0.880928 -4.535112,0.869748 3.005598,4.618363 -0.65231,2.340864 -5.667028,-8.709903 -10.763749,1.750676 4.991109,7.671178 -0.475877,1.238769 z"
       id="path3878"
       inkscape:connector-curvature="0" />
  </g>
  <g
     inkscape:groupmode="layer"
     id="layer3"
     inkscape:label="Text"
     transform="translate(3.0002422,98.739544)"
     style="display:inline">
    <g
       aria-label="W"
       transform="matrix(2.317563,0,0,2.317563,7.7422913,-694.97558)"
       style="font-style:normal;font-variant:normal;font-weight:normal;font-stretch:normal;font-size:16.07046127px;line-height:1.25;font-family:'Century Schoolbook L';-inkscape-font-specification:'Century Schoolbook L';letter-spacing:0px;word-spacing:0px;fill:#ffffff;fill-opacity:1;stroke:none;stroke-width:0.40176147"
       id="text3298">
      <path
         d="m 6.9499582,287.18544 -2.3141464,-7.19957 c -0.048211,-0.14463 -0.080352,-0.32141 -0.080352,-0.40176 0,-0.24106 0.1767751,-0.32141 0.6910298,-0.32141 h 0.7231708 v -0.75531 H 1.43779 v 0.75531 h 0.3053388 c 0.6749594,0 0.7713821,0.0643 0.9642277,0.62675 l 3.4712196,10.46187 h 0.6910298 l 2.3784283,-7.98702 2.6034148,7.98702 h 0.658889 l 2.828401,-9.43336 c 0.176775,-0.62675 0.257127,-0.8196 0.433902,-1.07672 0.257128,-0.3857 0.658889,-0.57854 1.189215,-0.57854 h 0.06428 v -0.75531 h -3.937263 v 0.75531 h 0.128564 c 0.932087,0 1.38206,0.2732 1.38206,0.83566 0,0.16071 -0.03214,0.38569 -0.09642,0.56247 l -1.928455,6.52461 -2.217724,-7.03887 c -0.09642,-0.30533 -0.112493,-0.33748 -0.112493,-0.44997 0,-0.14463 0.09642,-0.28927 0.241057,-0.35355 0.176775,-0.0643 0.289268,-0.0804 0.916016,-0.0804 h 0.257127 v -0.75531 H 7.0142401 v 0.75531 h 0.3696206 c 0.6588889,0 0.8838754,0.11249 1.012439,0.49818 l 0.417832,1.2535 z"
         style="font-style:normal;font-variant:normal;font-weight:normal;font-stretch:normal;font-family:'Century Schoolbook L';-inkscape-font-specification:'Century Schoolbook L';letter-spacing:0px;fill:#ffffff;fill-opacity:1;stroke-width:0.40176147"
         id="path3630"
         inkscape:connector-curvature="0" />
    </g>
    <g
       aria-label="番"
       transform="matrix(2.385007,0,0,2.385007,7.9772135,-713.07322)"
       style="font-style:normal;font-variant:normal;font-weight:normal;font-stretch:normal;font-size:16.92521477px;line-height:1.25;font-family:'Noto Sans';-inkscape-font-specification:'Noto Sans';letter-spacing:-42.31303787px;word-spacing:0px;fill:#ffffff;fill-opacity:1;stroke:none;stroke-width:0.42313036"
       id="text3325">
      <path
         d="m 30.540362,277.30564 q 1.337091,0 2.724959,-0.0338 1.404793,-0.0339 2.741885,-0.1354 1.354017,-0.10155 2.589558,-0.2708 1.252466,-0.16926 2.301829,-0.45698 l 0.727784,0.89703 q -1.218615,0.25388 -2.454156,0.44006 -1.218615,0.16925 -2.454156,0.28773 v 2.52185 h 1.574045 q 0.253878,-0.5416 0.490831,-1.13399 0.253878,-0.59238 0.490831,-1.32016 l 1.032438,0.37235 q -0.220027,0.52468 -0.440055,1.08322 -0.220028,0.5416 -0.423131,0.99858 h 3.215791 v 0.96474 H 37.4797 q 0.575457,0.47391 1.269391,0.91396 0.710859,0.42313 1.455568,0.79549 0.761635,0.37235 1.523269,0.66008 0.77856,0.28773 1.52327,0.45698 l -0.440056,1.08321 q -0.38928,-0.11847 -0.77856,-0.25387 -0.372354,-0.13541 -0.744709,-0.28773 v 6.48236 h -1.117064 v -0.72779 h -7.8533 v 0.89704 H 31.21737 v -6.51621 q -0.38928,0.18618 -0.795485,0.3385 -0.406205,0.15233 -0.81241,0.28773 l -0.440056,-1.04936 q 1.574045,-0.45698 3.063464,-1.23554 1.506344,-0.79549 2.674184,-1.84485 h -5.09449 v -0.96474 h 3.080389 q -0.186177,-0.4062 -0.38928,-0.82933 -0.203102,-0.42313 -0.42313,-0.86319 l 1.015513,-0.4062 q 0.270803,0.55853 0.490831,1.06628 0.236953,0.49084 0.473906,1.03244 h 1.540195 v -2.4203 q -1.16784,0.0846 -2.33568,0.11847 -1.16784,0.0339 -2.36953,0.0508 z m 6.177703,12.42311 h 3.452744 v -1.82792 h -3.452744 z m -4.400556,0 h 3.283492 v -1.82792 h -3.283492 z m 4.400556,-4.33286 v 1.65868 h 3.452744 v -1.65868 z m -4.400556,1.65868 h 3.283492 v -1.65868 h -3.283492 z m 8.005627,-2.58956 q -1.015513,-0.47391 -1.929475,-1.06629 -0.913961,-0.60931 -1.675596,-1.37094 v 2.43723 z m -4.722135,-2.36953 q -0.693934,0.69393 -1.52327,1.28631 -0.81241,0.59239 -1.743297,1.08322 h 3.266567 z"
         style="fill:#ffffff;fill-opacity:1;stroke-width:0.42313036"
         id="path3627"
         inkscape:connector-curvature="0" />
    </g>
  </g>
  <g
     inkscape:groupmode="layer"
     id="layer8"
     inkscape:label="Name"
     style="display:inline"
     transform="translate(2.5648845,98.304192)">
    <g
       aria-label="WikiTranslator"
       style="font-style:normal;font-variant:normal;font-weight:normal;font-stretch:normal;font-size:7.06521177px;line-height:1.25;font-family:Lato;-inkscape-font-specification:Lato;letter-spacing:0px;word-spacing:0px;display:inline;fill:#000000;fill-opacity:1;stroke:none;stroke-width:0.17663029"
       id="text3569"
       transform="matrix(2.4043781,0,0,2.4043781,9.7459727,-65.196232)">
      <path
         d="m 0.04394646,27.130891 h 0.56874955 q 0.0918478,0 0.15190206,0.04592 0.0600543,0.04592 0.0812499,0.116576 l 1.04565133,3.518475 q 0.028261,0.09538 0.049457,0.204891 0.024728,0.109511 0.045924,0.22962 0.024728,-0.120109 0.049457,-0.22962 0.024728,-0.113043 0.056522,-0.204891 l 1.1904882,-3.518475 q 0.021196,-0.06005 0.08125,-0.109511 0.063587,-0.05299 0.1519021,-0.05299 H 3.714324 q 0.091848,0 0.1483694,0.04592 0.060054,0.04592 0.084783,0.116576 l 1.1834229,3.518475 q 0.063587,0.183696 0.1130434,0.42038 0.021196,-0.116576 0.038859,-0.222554 0.017663,-0.105978 0.045924,-0.197826 l 1.0491839,-3.518475 q 0.017663,-0.06359 0.077717,-0.113044 0.063587,-0.04946 0.1519021,-0.04946 h 0.533423 L 5.5618769,32.193115 H 4.9472034 L 3.6648675,28.331977 q -0.038859,-0.109511 -0.070652,-0.254348 -0.017663,0.07065 -0.035326,0.137772 -0.01413,0.06359 -0.031793,0.116576 L 2.2376947,32.193115 H 1.6230213 Z"
         style="fill:#039be5;fill-opacity:1"
         id="path3598"
         inkscape:connector-curvature="0" />
      <path
         d="m 8.4129106,28.614585 v 3.57853 H 7.7841067 v -3.57853 z m 0.1413042,-1.123368 q 0,0.09185 -0.038859,0.173097 -0.035326,0.07772 -0.098913,0.141305 -0.060054,0.06005 -0.1413043,0.09538 -0.08125,0.03533 -0.1730977,0.03533 -0.091848,0 -0.1730976,-0.03533 -0.077717,-0.03533 -0.1413043,-0.09538 -0.060054,-0.06359 -0.09538,-0.141305 -0.035326,-0.08125 -0.035326,-0.173097 0,-0.09185 0.035326,-0.173098 0.035326,-0.08478 0.09538,-0.144837 0.063587,-0.06359 0.1413043,-0.09891 0.08125,-0.03533 0.1730976,-0.03533 0.091848,0 0.1730977,0.03533 0.08125,0.03533 0.1413043,0.09891 0.063587,0.06005 0.098913,0.144837 0.038859,0.08125 0.038859,0.173098 z"
         style="fill:#039be5;fill-opacity:1"
         id="path3600"
         inkscape:connector-curvature="0" />
      <path
         d="m 10.174687,26.989587 v 3.062769 h 0.1625 q 0.07065,0 0.116576,-0.01766 0.04592,-0.0212 0.102445,-0.08125 l 1.130434,-1.211684 q 0.05299,-0.05652 0.105978,-0.09185 0.05299,-0.03533 0.141305,-0.03533 h 0.572282 l -1.317662,1.402445 q -0.04946,0.06005 -0.09891,0.105978 -0.04592,0.04592 -0.105978,0.08125 0.06359,0.04239 0.113043,0.09891 0.05299,0.05299 0.09891,0.123641 l 1.398912,1.766303 h -0.565217 q -0.07772,0 -0.134239,-0.02826 -0.05299,-0.03179 -0.102446,-0.09538 l -1.176357,-1.466031 q -0.05299,-0.07418 -0.105979,-0.09538 -0.05299,-0.02473 -0.158967,-0.02473 h -0.17663 v 1.709781 H 9.5423504 v -5.203528 z"
         style="fill:#039be5;fill-opacity:1"
         id="path3602"
         inkscape:connector-curvature="0" />
      <path
         d="m 13.918808,28.614585 v 3.57853 h -0.628804 v -3.57853 z m 0.141304,-1.123368 q 0,0.09185 -0.03886,0.173097 -0.03533,0.07772 -0.09891,0.141305 -0.06006,0.06005 -0.141305,0.09538 -0.08125,0.03533 -0.173097,0.03533 -0.09185,0 -0.173098,-0.03533 -0.07772,-0.03533 -0.141304,-0.09538 -0.06005,-0.06359 -0.09538,-0.141305 -0.03533,-0.08125 -0.03533,-0.173097 0,-0.09185 0.03533,-0.173098 0.03533,-0.08478 0.09538,-0.144837 0.06359,-0.06359 0.141304,-0.09891 0.08125,-0.03533 0.173098,-0.03533 0.09185,0 0.173097,0.03533 0.08125,0.03533 0.141305,0.09891 0.06359,0.06005 0.09891,0.144837 0.03886,0.08125 0.03886,0.173098 z"
         style="fill:#039be5;fill-opacity:1"
         id="path3604"
         inkscape:connector-curvature="0" />
      <path
         d="m 18.573789,27.130891 v 0.575815 h -1.635597 v 4.486409 h -0.685325 v -4.486409 h -1.642662 v -0.575815 z"
         style="fill:#8b8b8b;fill-opacity:1"
         id="path3606"
         inkscape:connector-curvature="0" />
      <path
         d="m 18.628655,32.193115 v -3.57853 h 0.360326 q 0.102445,0 0.141304,0.03886 0.03886,0.03886 0.05299,0.134239 l 0.04239,0.558152 q 0.183696,-0.374456 0.452174,-0.58288 0.27201,-0.211956 0.635869,-0.211956 0.148369,0 0.268478,0.03533 0.120108,0.03179 0.222554,0.09185 l -0.08125,0.469837 q -0.02473,0.08832 -0.109511,0.08832 -0.04946,0 -0.151902,-0.03179 -0.102445,-0.03533 -0.286141,-0.03533 -0.328532,0 -0.551086,0.19076 -0.219022,0.190761 -0.367391,0.554619 v 2.278531 z"
         style="fill:#8b8b8b;fill-opacity:1"
         id="path3608"
         inkscape:connector-curvature="0" />
      <path
         d="m 23.961564,32.193115 h -0.279075 q -0.09185,0 -0.14837,-0.02826 -0.05652,-0.02826 -0.07418,-0.120108 l -0.07065,-0.332065 q -0.141304,0.127174 -0.275543,0.229619 -0.134239,0.09891 -0.282608,0.169565 -0.14837,0.06712 -0.317935,0.102446 -0.166032,0.03533 -0.370924,0.03533 -0.208423,0 -0.392119,-0.05652 -0.180163,-0.06005 -0.314402,-0.17663 -0.134239,-0.116576 -0.215489,-0.293206 -0.07772,-0.180163 -0.07772,-0.423913 0,-0.211956 0.116576,-0.40625 0.116576,-0.197826 0.374456,-0.349728 0.261413,-0.151902 0.681793,-0.247282 0.42038,-0.09891 1.027988,-0.113044 v -0.279075 q 0,-0.416848 -0.180162,-0.628804 -0.176631,-0.215489 -0.526359,-0.215489 -0.229619,0 -0.388586,0.06005 -0.155435,0.05652 -0.272011,0.130707 -0.113043,0.07065 -0.197826,0.130706 -0.08125,0.05652 -0.1625,0.05652 -0.06359,0 -0.113043,-0.03179 -0.04592,-0.03533 -0.07418,-0.08478 l -0.113043,-0.201359 q 0.296739,-0.286141 0.639401,-0.427445 0.342663,-0.141304 0.759511,-0.141304 0.300271,0 0.533423,0.09891 0.233152,0.09891 0.392119,0.275543 0.158968,0.17663 0.240218,0.427445 0.08125,0.250815 0.08125,0.551087 z m -1.632063,-0.385054 q 0.166032,0 0.303804,-0.03179 0.137771,-0.03533 0.25788,-0.09538 0.123641,-0.06359 0.233152,-0.151902 0.113043,-0.08831 0.219021,-0.201358 v -0.74538 q -0.43451,0.01413 -0.738314,0.07065 -0.303804,0.05299 -0.494565,0.141304 -0.190761,0.08832 -0.279076,0.208424 -0.08478,0.120109 -0.08478,0.268478 0,0.141304 0.04592,0.24375 0.04592,0.102445 0.123642,0.169565 0.07772,0.06359 0.183695,0.09538 0.105978,0.02826 0.22962,0.02826 z"
         style="fill:#8b8b8b;fill-opacity:1"
         id="path3610"
         inkscape:connector-curvature="0" />
      <path
         d="m 24.921109,32.193115 v -3.57853 h 0.374456 q 0.134239,0 0.169565,0.130707 l 0.04946,0.388587 q 0.233152,-0.257881 0.519293,-0.416848 0.289674,-0.158967 0.667663,-0.158967 0.293206,0 0.51576,0.09891 0.226087,0.09538 0.374457,0.275543 0.151902,0.17663 0.229619,0.427445 0.07772,0.250815 0.07772,0.554619 v 2.278531 h -0.628803 v -2.278531 q 0,-0.406249 -0.187229,-0.628803 -0.183695,-0.226087 -0.565217,-0.226087 -0.279075,0 -0.522825,0.134239 -0.240217,0.134239 -0.445109,0.363858 v 2.635324 z"
         style="fill:#8b8b8b;fill-opacity:1"
         id="path3612"
         inkscape:connector-curvature="0" />
      <path
         d="m 30.902805,29.204531 q -0.04239,0.07772 -0.130706,0.07772 -0.05299,0 -0.120109,-0.03886 -0.06712,-0.03886 -0.166032,-0.08478 -0.09538,-0.04946 -0.22962,-0.08832 -0.134239,-0.04239 -0.317934,-0.04239 -0.158968,0 -0.286141,0.04239 -0.127174,0.03886 -0.219022,0.10951 -0.08831,0.07065 -0.137772,0.166033 -0.04592,0.09185 -0.04592,0.201358 0,0.137772 0.07772,0.22962 0.08125,0.09185 0.211956,0.158967 0.130707,0.06712 0.296739,0.120109 0.166033,0.04946 0.33913,0.10951 0.176631,0.05652 0.342663,0.127174 0.166032,0.07065 0.296739,0.176631 0.130706,0.105978 0.208424,0.261412 0.08125,0.151902 0.08125,0.367391 0,0.247283 -0.08832,0.459239 -0.08831,0.208424 -0.261412,0.363859 -0.173098,0.151902 -0.423913,0.240217 -0.250815,0.08832 -0.579347,0.08832 -0.374457,0 -0.678261,-0.120109 -0.303804,-0.123641 -0.51576,-0.314402 l 0.148369,-0.240217 q 0.02826,-0.04592 0.06712,-0.07065 0.03886,-0.02473 0.102445,-0.02473 0.06359,0 0.134239,0.04946 0.07065,0.04946 0.169565,0.109511 0.102446,0.06005 0.24375,0.109511 0.144837,0.04946 0.360326,0.04946 0.183695,0 0.321467,-0.04592 0.137772,-0.04946 0.229619,-0.130706 0.09185,-0.08125 0.13424,-0.187228 0.04592,-0.105978 0.04592,-0.226087 0,-0.148369 -0.08125,-0.24375 -0.07772,-0.09891 -0.208423,-0.166032 -0.130707,-0.07065 -0.300272,-0.120109 -0.166032,-0.05299 -0.342663,-0.10951 -0.173097,-0.05652 -0.342662,-0.127174 -0.166033,-0.07418 -0.296739,-0.183696 -0.130707,-0.109511 -0.211957,-0.268478 -0.07772,-0.1625 -0.07772,-0.392119 0,-0.204891 0.08478,-0.392119 0.08478,-0.190761 0.247282,-0.332065 0.1625,-0.144837 0.399185,-0.22962 0.236684,-0.08478 0.540488,-0.08478 0.353261,0 0.632337,0.113043 0.282608,0.109511 0.487499,0.303804 z"
         style="fill:#8b8b8b;fill-opacity:1"
         id="path3614"
         inkscape:connector-curvature="0" />
      <path
         d="m 32.61678,26.989587 v 5.203528 h -0.628803 v -5.203528 z"
         style="fill:#8b8b8b;fill-opacity:1"
         id="path3616"
         inkscape:connector-curvature="0" />
      <path
         d="m 36.353284,32.193115 h -0.279076 q -0.09185,0 -0.148369,-0.02826 -0.05652,-0.02826 -0.07418,-0.120108 l -0.07065,-0.332065 q -0.141304,0.127174 -0.275543,0.229619 -0.134239,0.09891 -0.282609,0.169565 -0.148369,0.06712 -0.317934,0.102446 -0.166033,0.03533 -0.370924,0.03533 -0.208423,0 -0.392119,-0.05652 -0.180163,-0.06005 -0.314402,-0.17663 -0.134239,-0.116576 -0.215489,-0.293206 -0.07772,-0.180163 -0.07772,-0.423913 0,-0.211956 0.116576,-0.40625 0.116576,-0.197826 0.374456,-0.349728 0.261413,-0.151902 0.681793,-0.247282 0.42038,-0.09891 1.027988,-0.113044 v -0.279075 q 0,-0.416848 -0.180163,-0.628804 -0.17663,-0.215489 -0.526358,-0.215489 -0.229619,0 -0.388587,0.06005 -0.155434,0.05652 -0.27201,0.130707 -0.113044,0.07065 -0.197826,0.130706 -0.08125,0.05652 -0.1625,0.05652 -0.06359,0 -0.113043,-0.03179 -0.04592,-0.03533 -0.07418,-0.08478 l -0.113044,-0.201359 q 0.296739,-0.286141 0.639402,-0.427445 0.342663,-0.141304 0.75951,-0.141304 0.300272,0 0.533424,0.09891 0.233152,0.09891 0.392119,0.275543 0.158967,0.17663 0.240217,0.427445 0.08125,0.250815 0.08125,0.551087 z M 34.72122,31.808061 q 0.166033,0 0.303804,-0.03179 0.137772,-0.03533 0.257881,-0.09538 0.123641,-0.06359 0.233152,-0.151902 0.113043,-0.08831 0.219021,-0.201358 v -0.74538 q -0.43451,0.01413 -0.738314,0.07065 -0.303804,0.05299 -0.494565,0.141304 -0.190761,0.08832 -0.279076,0.208424 -0.08478,0.120109 -0.08478,0.268478 0,0.141304 0.04592,0.24375 0.04592,0.102445 0.123641,0.169565 0.07772,0.06359 0.183696,0.09538 0.105978,0.02826 0.229619,0.02826 z"
         style="fill:#8b8b8b;fill-opacity:1"
         id="path3618"
         inkscape:connector-curvature="0" />
      <path
         d="m 38.397338,32.249637 q -0.423912,0 -0.653532,-0.236685 -0.226086,-0.236684 -0.226086,-0.681793 v -2.190215 h -0.430978 q -0.05652,0 -0.09538,-0.03179 -0.03886,-0.03533 -0.03886,-0.105978 v -0.250815 l 0.586412,-0.07418 0.144837,-1.105705 q 0.0071,-0.05299 0.04592,-0.08478 0.03886,-0.03533 0.09891,-0.03533 h 0.317934 v 1.23288 h 1.024456 v 0.455706 h -1.024456 v 2.147824 q 0,0.226087 0.109511,0.335598 0.109511,0.10951 0.282609,0.10951 0.09891,0 0.169565,-0.02473 0.07418,-0.02826 0.127174,-0.06005 0.05299,-0.03179 0.08831,-0.05652 0.03886,-0.02826 0.06712,-0.02826 0.04946,0 0.08831,0.06005 l 0.183696,0.300271 q -0.1625,0.151902 -0.392119,0.240217 -0.22962,0.08478 -0.47337,0.08478 z"
         style="fill:#8b8b8b;fill-opacity:1"
         id="path3620"
         inkscape:connector-curvature="0" />
      <path
         d="m 41.396851,28.558064 q 0.39212,0 0.706521,0.130706 0.317935,0.130707 0.536957,0.370924 0.222554,0.240217 0.33913,0.58288 0.120108,0.33913 0.120108,0.75951 0,0.423913 -0.120108,0.763043 -0.116576,0.33913 -0.33913,0.579347 -0.219022,0.240217 -0.536957,0.370924 -0.314401,0.127174 -0.706521,0.127174 -0.392119,0 -0.710054,-0.127174 -0.314401,-0.130707 -0.536956,-0.370924 -0.222554,-0.240217 -0.342662,-0.579347 -0.120109,-0.33913 -0.120109,-0.763043 0,-0.42038 0.120109,-0.75951 0.120108,-0.342663 0.342662,-0.58288 0.222555,-0.240217 0.536956,-0.370924 0.317935,-0.130706 0.710054,-0.130706 z m 0,3.193475 q 0.529891,0 0.791304,-0.35326 0.261413,-0.356793 0.261413,-0.992662 0,-0.639402 -0.261413,-0.996195 -0.261413,-0.356793 -0.791304,-0.356793 -0.268478,0 -0.466304,0.09185 -0.197826,0.09185 -0.332065,0.264946 -0.130706,0.173097 -0.197826,0.427445 -0.06359,0.250815 -0.06359,0.56875 0,0.317934 0.06359,0.568749 0.06712,0.250815 0.197826,0.423913 0.134239,0.169565 0.332065,0.261413 0.197826,0.09185 0.466304,0.09185 z"
         style="fill:#8b8b8b;fill-opacity:1"
         id="path3622"
         inkscape:connector-curvature="0" />
      <path
         d="m 43.881268,32.193115 v -3.57853 h 0.360326 q 0.102445,0 0.141304,0.03886 0.03886,0.03886 0.05299,0.134239 l 0.04239,0.558152 q 0.183696,-0.374456 0.452174,-0.58288 0.27201,-0.211956 0.635869,-0.211956 0.148369,0 0.268478,0.03533 0.120109,0.03179 0.222554,0.09185 l -0.08125,0.469837 q -0.02473,0.08832 -0.109511,0.08832 -0.04946,0 -0.151902,-0.03179 -0.102445,-0.03533 -0.286141,-0.03533 -0.328532,0 -0.551086,0.19076 -0.219022,0.190761 -0.367391,0.554619 v 2.278531 z"
         style="fill:#8b8b8b;fill-opacity:1"
         id="path3624"
         inkscape:connector-curvature="0" />
    </g>
  </g>
</svg>
