<svg xmlns="http://www.w3.org/2000/svg" width="100" height="60" viewBox="0 0 26.5 15.9"><g fill="#dedede" transform="translate(-12.3 -679) scale(2.33811)"><path d="M5.3 296.1a2.7 2.7 0 0 1 1.4-2.4 2.7 2.7 0 0 1 2.7 0 2.7 2.7 0 0 1 1.4 2.4H8z" paint-order="stroke fill markers"/><circle cx="8" cy="292.2" r="1.6" paint-order="stroke fill markers"/></g><g fill="#dedede" transform="translate(1.1 -679) scale(2.33811)"><path d="M5.3 296.1a2.7 2.7 0 0 1 1.4-2.4 2.7 2.7 0 0 1 2.7 0 2.7 2.7 0 0 1 1.4 2.4H8z" paint-order="stroke fill markers"/><circle cx="8" cy="292.2" r="1.6" paint-order="stroke fill markers"/></g><g fill="#b4b4b4" transform="translate(-5.6 -676.8) scale(2.33811)"><path d="M5.3 296.1a2.7 2.7 0 0 1 1.4-2.4 2.7 2.7 0 0 1 2.7 0 2.7 2.7 0 0 1 1.4 2.4H8z" paint-order="stroke fill markers"/><circle cx="8" cy="292.2" r="1.6" paint-order="stroke fill markers"/></g></svg>