<?xml version="1.0" encoding="UTF-8" standalone="no"?>
<!-- Created with Inkscape (http://www.inkscape.org/) -->

<svg
   xmlns:dc="http://purl.org/dc/elements/1.1/"
   xmlns:cc="http://creativecommons.org/ns#"
   xmlns:rdf="http://www.w3.org/1999/02/22-rdf-syntax-ns#"
   xmlns:svg="http://www.w3.org/2000/svg"
   xmlns="http://www.w3.org/2000/svg"
   xmlns:sodipodi="http://sodipodi.sourceforge.net/DTD/sodipodi-0.dtd"
   xmlns:inkscape="http://www.inkscape.org/namespaces/inkscape"
   width="100"
   height="60"
   viewBox="0 0 26.458332 15.875"
   version="1.1"
   id="svg8"
   inkscape:version="0.92.4 (unknown)"
   sodipodi:docname="science_editor.svg"
   inkscape:export-filename="/home/jdranczewski/Documents/Programming/WikiTranslator/img/science.png"
   inkscape:export-xdpi="96"
   inkscape:export-ydpi="96">
  <defs
     id="defs2" />
  <sodipodi:namedview
     id="base"
     pagecolor="#ffffff"
     bordercolor="#666666"
     borderopacity="1.0"
     inkscape:pageopacity="0.0"
     inkscape:pageshadow="2"
     inkscape:zoom="3.445"
     inkscape:cx="20.848827"
     inkscape:cy="-16.768912"
     inkscape:document-units="mm"
     inkscape:current-layer="g978"
     showgrid="false"
     units="px"
     inkscape:window-width="959"
     inkscape:window-height="1052"
     inkscape:window-x="960"
     inkscape:window-y="0"
     inkscape:window-maximized="0" />
  <metadata
     id="metadata5">
    <rdf:RDF>
      <cc:Work
         rdf:about="">
        <dc:format>image/svg+xml</dc:format>
        <dc:type
           rdf:resource="http://purl.org/dc/dcmitype/StillImage" />
        <dc:title />
      </cc:Work>
    </rdf:RDF>
  </metadata>
  <g
     inkscape:label="Layer 1"
     inkscape:groupmode="layer"
     id="layer1"
     transform="translate(0,-281.12499)">
    <g
       id="g978"
       transform="matrix(4.7521743,0,0,4.7521743,-0.21032108,-1102.2012)">
      <path
         sodipodi:nodetypes="czzszcc"
         inkscape:connector-curvature="0"
         id="path960"
         d="m 2.0963444,291.3121 c 0,0 -0.3471194,0.71946 -0.3801748,0.78797 -0.033069,0.0685 -1.6881725,0.97981 -1.66246454,1.13149 0.0257036,0.15169 2.14259744,1.10603 2.23310944,1.07742 0.098884,-0.0312 -0.1862056,-1.92829 -0.1489698,-2.00547 0.03724,-0.0772 0.3801748,-0.78797 0.3801748,-0.78797 z"
         style="opacity:1;fill:#dedede;fill-opacity:1;fill-rule:nonzero;stroke:none;stroke-width:1.66699994;stroke-linecap:round;stroke-linejoin:round;stroke-miterlimit:4;stroke-dasharray:none;stroke-dashoffset:0;stroke-opacity:1;paint-order:stroke fill markers" />
      <path
         sodipodi:nodetypes="czzsc"
         inkscape:connector-curvature="0"
         id="path965"
         d="m 0.23386083,293.22314 c -0.002977,0.0394 1.85973217,0.91366 1.91068747,0.89481 0.050955,-0.0188 0.00614,-0.80359 -0.0512,-0.85146 -0.057337,-0.0479 -1.85468418,-0.10697 -1.85948717,-0.0434 z"
         style="opacity:1;vector-effect:none;fill:#b4b4b4;fill-opacity:1;stroke:none;stroke-width:0.5;stroke-linecap:butt;stroke-linejoin:miter;stroke-miterlimit:4;stroke-dasharray:none;stroke-dashoffset:0;stroke-opacity:1" />
      <circle
         r="0.08743266"
         cy="293.77856"
         cx="1.9293518"
         id="path967"
         style="opacity:1;fill:#dedede;fill-opacity:1;fill-rule:nonzero;stroke:none;stroke-width:1.91764581;stroke-linecap:round;stroke-linejoin:round;stroke-miterlimit:4;stroke-dasharray:none;stroke-dashoffset:0;stroke-opacity:1;paint-order:stroke fill markers" />
      <ellipse
         ry="0.087697811"
         rx="0.096467592"
         cy="293.46283"
         cx="1.6691817"
         id="path969"
         style="opacity:1;fill:#dedede;fill-opacity:1;fill-rule:nonzero;stroke:none;stroke-width:1.66699994;stroke-linecap:round;stroke-linejoin:round;stroke-miterlimit:4;stroke-dasharray:none;stroke-dashoffset:0;stroke-opacity:1;paint-order:stroke fill markers" />
      <ellipse
         ry="0.060990736"
         rx="0.065056786"
         cy="293.43652"
         cx="2.0170498"
         id="path971"
         style="opacity:1;fill:#dedede;fill-opacity:1;fill-rule:nonzero;stroke:none;stroke-width:2.31867933;stroke-linecap:round;stroke-linejoin:round;stroke-miterlimit:4;stroke-dasharray:none;stroke-dashoffset:0;stroke-opacity:1;paint-order:stroke fill markers" />
    </g>
    <g
       transform="matrix(0.05332609,0,0,0.05332609,-5.1677141,263.6591)"
       id="layer1-6"
       inkscape:label="Layer 1"
       style="fill:#b4b4b4;fill-opacity:1">
      <g
         style="fill:#b4b4b4;fill-opacity:1"
         id="g8160">
        <path
           inkscape:connector-curvature="0"
           style="color:#000000;font-style:normal;font-variant:normal;font-weight:normal;font-stretch:normal;font-size:medium;line-height:normal;font-family:sans-serif;text-indent:0;text-align:start;text-decoration:none;text-decoration-line:none;text-decoration-style:solid;text-decoration-color:#000000;letter-spacing:normal;word-spacing:normal;text-transform:none;writing-mode:lr-tb;direction:ltr;baseline-shift:baseline;text-anchor:start;white-space:normal;clip-rule:nonzero;display:inline;overflow:visible;visibility:visible;opacity:1;isolation:auto;mix-blend-mode:normal;color-interpolation:sRGB;color-interpolation-filters:linearRGB;solid-color:#000000;solid-opacity:1;fill:#b4b4b4;fill-opacity:1;fill-rule:nonzero;stroke:none;stroke-width:9.98499966;stroke-linecap:butt;stroke-linejoin:miter;stroke-miterlimit:4;stroke-dasharray:none;stroke-dashoffset:0;stroke-opacity:1;color-rendering:auto;image-rendering:auto;shape-rendering:auto;text-rendering:auto;enable-background:accumulate"
           d="m 477.81445,338.61133 c -4.66,0.0951 -9.63691,1.56193 -14.65039,3.9414 -8.91283,4.23017 -18.57231,11.52583 -28.81445,21.31641 -7.46213,7.13312 -15.21854,15.61504 -23.05273,25.21289 -8.00012,-9.4591 -15.90281,-17.80517 -23.48829,-24.80664 -10.41168,-9.6101 -20.20014,-16.73483 -29.18554,-20.80859 -8.9854,-4.07377 -17.80095,-5.26368 -24.8418,-1.02539 -7.04084,4.2383 -10.11509,12.58449 -10.7207,22.43164 -0.49733,8.08659 0.59357,17.63576 2.99609,28.37109 2.5176,-2.43302 5.64793,-4.17622 9.17188,-4.80078 -1.3e-4,-6.1e-4 1.2e-4,-10e-4 0,-0.002 -1.84396,-9.02658 -2.57714,-16.84194 -2.20118,-22.95508 0.50128,-8.15085 2.82785,-12.64146 5.90235,-14.49219 1.34509,-0.80968 3.06966,-1.25651 5.20703,-1.2207 2.74804,0.046 6.17965,0.89036 10.36328,2.78711 7.43755,3.37201 16.6247,9.90527 26.53516,19.05273 7.62632,7.03918 15.69972,15.62513 23.92382,25.46875 -6.71455,8.70336 -13.44108,18.18479 -20.05468,28.32227 -12.9739,0.69703 -25.37628,1.87724 -36.96289,3.49804 -0.43479,-1.08376 -0.85244,-2.15562 -1.26953,-3.22656 -3.21861,1.23649 -6.77229,1.69455 -10.20508,1.31445 0.43996,1.15596 0.88604,2.31509 1.3457,3.48438 -11.28203,1.90534 -21.6855,4.22748 -30.93164,6.92187 -13.60306,3.96404 -24.75467,8.67418 -32.87891,14.27149 -8.12423,5.59731 -13.6914,12.53582 -13.6914,20.75391 0,8.21805 5.56717,15.15659 13.6914,20.7539 8.12424,5.59731 19.27585,10.30745 32.87891,14.27149 9.56146,2.78627 20.35782,5.17511 32.08789,7.11523 -4.19362,11.12547 -7.53091,21.66798 -9.90625,31.33984 -3.37935,13.75997 -4.88501,25.77041 -4.10742,35.60547 0.7776,9.83507 3.99749,18.12759 11.11133,22.24219 7.11384,4.1146 15.90551,2.77119 24.81836,-1.45898 7.84718,-3.7244 16.27674,-9.83045 25.16992,-17.91797 -2.93766,-1.2849 -5.53424,-3.32146 -7.40039,-6.17578 -0.0977,-0.11922 -0.18175,-0.24429 -0.27539,-0.36524 -8.05956,7.19872 -15.52798,12.47239 -21.77539,15.4375 -7.37749,3.50147 -12.4327,3.63265 -15.53907,1.83594 -3.10637,-1.79671 -5.5126,-6.24197 -6.15625,-14.38281 -0.64364,-8.14085 0.63294,-19.3419 3.84961,-32.43946 2.40226,-9.78147 5.86946,-20.63113 10.31446,-32.19336 11.42187,1.56344 23.61299,2.70601 36.36132,3.37696 6.88521,10.18508 13.87648,19.69691 20.8418,28.40625 -0.55996,0.69455 -1.11716,1.3685 -1.67578,2.05078 2.85931,1.82148 5.24414,4.37934 6.91016,7.33984 0.4145,-0.50212 0.8272,-0.9955 1.24218,-1.5039 8.00061,9.45928 15.90472,17.80707 23.49024,24.80859 10.41168,9.61009 20.19819,16.73483 29.18359,20.80859 8.9854,4.07377 17.80095,5.26368 24.8418,1.02539 7.04085,-4.23829 10.1151,-12.58644 10.7207,-22.43359 0.60561,-9.84714 -1.10921,-21.83048 -4.72851,-35.5293 -2.4601,-9.3113 -5.83708,-19.42182 -10.02344,-30.07031 11.28214,-1.90538 21.68521,-4.2274 30.93164,-6.92187 13.60306,-3.96404 24.75662,-8.67418 32.88086,-14.27149 8.12423,-5.59731 13.68945,-12.53586 13.68945,-20.7539 0,-8.21808 -5.56522,-15.1566 -13.68945,-20.75391 -7.45496,-5.1362 -17.48722,-9.51837 -29.59571,-13.26953 0.23245,2.74596 -0.13831,5.56629 -1.2539,8.27929 -0.17335,0.55115 -0.38018,1.07938 -0.60352,1.59571 10.97521,3.4902 19.81238,7.50081 25.78711,11.61718 6.72474,4.63311 9.3711,8.94269 9.3711,12.53126 0,3.58854 -2.64636,7.89815 -9.3711,12.53124 -6.72473,4.63311 -17.0596,9.135 -30.00781,12.90821 -9.39784,2.73859 -20.18501,5.10652 -32.01367,7.01953 -4.51588,-10.59527 -9.80605,-21.64673 -15.78321,-32.93555 5.58318,-11.00596 10.51763,-21.77166 14.75,-32.11328 0.1461,-4.69803 1.99713,-9.39705 5.03907,-13.02734 3.5925,-9.84674 6.49476,-19.20532 8.62109,-27.86328 3.37935,-13.75997 4.88501,-25.77237 4.10742,-35.60743 -0.7776,-9.83506 -3.9975,-18.12563 -11.11132,-22.24023 -3.11231,-1.80014 -6.54548,-2.55637 -10.16993,-2.48242 z m 0.83399,9.99414 c 1.73274,0.0551 3.17105,0.4571 4.33594,1.13086 3.10637,1.79671 5.5126,6.24588 6.15624,14.38672 0.64365,8.14085 -0.63293,19.33994 -3.8496,32.4375 -2.40226,9.78147 -5.86963,20.63142 -10.31446,32.19336 -11.42112,-1.56333 -23.61182,-2.70604 -36.35937,-3.37696 -6.88528,-10.18567 -13.87847,-19.69651 -20.84375,-28.40625 8.0506,-9.98549 15.97266,-18.71163 23.47461,-25.88281 9.74909,-9.31926 18.81977,-16.01219 26.19726,-19.51367 4.61093,-2.18842 8.31522,-3.06067 11.20313,-2.96875 z m -67.21289,56.46094 c 4.89593,6.19966 9.81683,12.82115 14.70507,19.80468 -4.64852,-0.12737 -9.35208,-0.19726 -14.11523,-0.19726 -4.99083,0 -9.9206,0.0732 -14.78516,0.21289 4.71297,-6.98066 9.4621,-13.60642 14.19532,-19.82031 z m 0.58984,29.59179 c 7.16525,0 14.20236,0.15786 21.08789,0.45118 3.80276,5.74849 7.56991,11.69644 11.26563,17.83593 3.85713,6.40766 7.50195,12.78803 10.92773,19.09766 -3.31484,6.36822 -6.84735,12.81131 -10.5918,19.28515 -3.66057,6.32886 -7.39723,12.4653 -11.17578,18.38868 -7.02001,0.3051 -14.20155,0.46679 -21.51367,0.46679 -7.16592,0 -14.20359,-0.15791 -21.08984,-0.45117 -3.80273,-5.74863 -7.56796,-11.69645 -11.26367,-17.83594 -3.85761,-6.40843 -7.50351,-12.78937 -10.92969,-19.0996 3.31467,-6.36783 6.8496,-12.80986 10.59375,-19.28321 3.66103,-6.32965 7.3968,-12.46469 11.17578,-18.38867 7.02012,-0.30521 14.20155,-0.4668 21.51367,-0.4668 z m 33.45508,1.14649 c 8.9024,0.6138 17.47771,1.46453 25.64453,2.52734 -3.09546,7.42535 -6.5607,15.08388 -10.37891,22.9043 -2.5031,-4.45763 -5.10668,-8.9412 -7.81445,-13.43945 -2.45665,-4.08111 -4.94454,-8.07497 -7.45117,-11.99219 z m -67.20117,0.0195 c -2.55609,4.14034 -5.08755,8.37188 -7.58594,12.6914 -2.62887,4.54511 -5.15325,9.07331 -7.57813,13.57422 -4.11709,-8.07124 -7.84648,-15.97593 -11.17187,-23.6289 8.37259,-1.11144 17.17912,-1.99958 26.33594,-2.63672 z m -36.5918,4.13867 c 4.51589,10.59621 9.80564,21.64759 15.7832,32.9375 -5.58932,11.01835 -10.53022,21.79814 -14.76562,32.15039 -12.23415,-1.94086 -23.36133,-4.37157 -33.03125,-7.18945 -12.94822,-3.77321 -23.28308,-8.27508 -30.00781,-12.90821 -6.72474,-4.6331 -9.36914,-8.94271 -9.36914,-12.53124 0,-3.58856 2.6444,-7.89814 9.36914,-12.53126 6.72473,-4.6331 17.05959,-9.13499 30.00781,-12.9082 9.39782,-2.73859 20.1847,-5.10619 32.01367,-7.01953 z m 119.24805,42.79297 c 4.11635,8.07038 7.84507,15.9747 11.16992,23.62695 -8.37195,1.1111 -17.17983,1.99788 -26.33594,2.63477 2.55627,-4.14062 5.08932,-8.36961 7.58789,-12.68946 2.62855,-4.54455 5.15352,-9.07187 7.57813,-13.57226 z m -97.63282,0.85156 c 2.50302,4.45759 5.10475,8.94119 7.8125,13.43946 2.45638,4.08064 4.94476,8.07341 7.45118,11.99023 -8.90155,-0.6136 -17.47447,-1.46293 -25.64063,-2.52539 3.09533,-7.42491 6.55903,-15.08442 10.37695,-22.9043 z m 112.80469,32.33399 c 4.46162,11.12191 7.99749,21.58435 10.49805,31.04882 3.44507,13.03935 4.91729,24.21633 4.41601,32.36719 -0.50128,8.15086 -2.8298,12.63953 -5.90429,14.49024 -3.07451,1.85073 -8.1308,1.80755 -15.56836,-1.56446 -7.43756,-3.37202 -16.6247,-9.90527 -26.53516,-19.05273 -7.62628,-7.03914 -15.69793,-15.62666 -23.92187,-25.4707 6.7142,-8.70299 13.44143,-18.18338 20.05468,-28.32032 12.97299,-0.69699 25.37518,-1.87737 36.96094,-3.49804 z m -49.29883,4.01562 c -4.71324,6.98103 -9.46181,13.60804 -14.19531,19.82227 -4.89581,-6.19985 -9.81497,-12.82299 -14.70312,-19.80664 4.64858,0.12737 9.35208,0.19726 14.11523,0.19726 4.99017,0 9.91933,-0.0732 14.7832,-0.21289 z"
           id="path8087" />
        <path
           inkscape:connector-curvature="0"
           style="opacity:1;fill:#b4b4b4;fill-opacity:1;stroke:none;stroke-width:9.98499966;stroke-linejoin:miter;stroke-miterlimit:4;stroke-dasharray:none;stroke-dashoffset:0;stroke-opacity:1"
           d="m 339.12109,392.18945 a 15.551456,15.551456 0 0 0 -15.55078,15.55078 15.551456,15.551456 0 0 0 15.55078,15.55079 15.551456,15.551456 0 0 0 15.55079,-15.55079 15.551456,15.551456 0 0 0 -15.55079,-15.55078 z m 161.77735,31.97266 a 15.551456,15.551456 0 0 0 -15.55274,15.55078 15.551456,15.551456 0 0 0 15.55274,15.55273 15.551456,15.551456 0 0 0 15.55078,-15.55273 15.551456,15.551456 0 0 0 -15.55078,-15.55078 z M 394.47852,551.10156 a 15.551456,15.551456 0 0 0 -15.55079,15.55274 15.551456,15.551456 0 0 0 15.55079,15.55078 15.551456,15.551456 0 0 0 15.55078,-15.55078 15.551456,15.551456 0 0 0 -15.55078,-15.55274 z"
           id="path8093" />
        <path
           inkscape:connector-curvature="0"
           style="opacity:1;fill:#b4b4b4;fill-opacity:1;stroke:none;stroke-width:9.98499966;stroke-linejoin:miter;stroke-miterlimit:4;stroke-dasharray:none;stroke-dashoffset:0;stroke-opacity:1"
           d="m 411.06555,457.13202 c -8.5883,3.7e-4 -15.55041,6.96248 -15.55078,15.55078 3.7e-4,8.58831 6.96247,15.55042 15.55078,15.55079 8.58831,-3.7e-4 15.55042,-6.96248 15.55079,-15.55079 -3.7e-4,-8.58831 -6.96248,-15.55041 -15.55079,-15.55078 z"
           id="path8093-8"
           sodipodi:nodetypes="ccccc" />
        <path
           sodipodi:nodetypes="ccccc"
           id="path8148"
           d="m 421.17105,477.34302 c -8.5883,3.7e-4 -15.55041,6.96248 -15.55078,15.55078 3.7e-4,8.58831 6.96247,15.55042 15.55078,15.55079 8.58831,-3.7e-4 15.55042,-6.96248 15.55079,-15.55079 -3.7e-4,-8.58831 -6.96248,-15.55041 -15.55079,-15.55078 z"
           style="opacity:1;fill:#b4b4b4;fill-opacity:1;stroke:none;stroke-width:9.98499966;stroke-linejoin:miter;stroke-miterlimit:4;stroke-dasharray:none;stroke-dashoffset:0;stroke-opacity:1"
           inkscape:connector-curvature="0" />
        <path
           inkscape:connector-curvature="0"
           style="opacity:1;fill:#b4b4b4;fill-opacity:1;stroke:none;stroke-width:9.98499966;stroke-linejoin:miter;stroke-miterlimit:4;stroke-dasharray:none;stroke-dashoffset:0;stroke-opacity:1"
           d="m 434.49194,456.21333 c -8.5883,3.7e-4 -15.55041,6.96248 -15.55078,15.55078 3.7e-4,8.58831 6.96247,15.55042 15.55078,15.55079 8.58831,-3.7e-4 15.55042,-6.96248 15.55079,-15.55079 -3.7e-4,-8.58831 -6.96248,-15.55041 -15.55079,-15.55078 z"
           id="path8150"
           sodipodi:nodetypes="ccccc" />
        <path
           sodipodi:nodetypes="ccccc"
           id="path8152"
           d="m 422.08973,438.29903 c -8.5883,3.7e-4 -15.55041,6.96248 -15.55078,15.55078 3.7e-4,8.58831 6.96247,15.55042 15.55078,15.55079 8.58831,-3.7e-4 15.55042,-6.96248 15.55079,-15.55079 -3.7e-4,-8.58831 -6.96248,-15.55041 -15.55079,-15.55078 z"
           style="opacity:1;fill:#b4b4b4;fill-opacity:1;stroke:none;stroke-width:9.98499966;stroke-linejoin:miter;stroke-miterlimit:4;stroke-dasharray:none;stroke-dashoffset:0;stroke-opacity:1"
           inkscape:connector-curvature="0" />
        <path
           inkscape:connector-curvature="0"
           style="opacity:1;fill:#b4b4b4;fill-opacity:1;stroke:none;stroke-width:9.98499966;stroke-linejoin:miter;stroke-miterlimit:4;stroke-dasharray:none;stroke-dashoffset:0;stroke-opacity:1"
           d="m 402.33807,436.92101 c -8.5883,3.7e-4 -15.55041,6.96248 -15.55078,15.55078 3.7e-4,8.58831 6.96247,15.55042 15.55078,15.55079 8.58831,-3.7e-4 15.55042,-6.96248 15.55079,-15.55079 -3.7e-4,-8.58831 -6.96248,-15.55041 -15.55079,-15.55078 z"
           id="path8154"
           sodipodi:nodetypes="ccccc" />
        <path
           sodipodi:nodetypes="ccccc"
           id="path8156"
           d="m 389.01718,457.59136 c -8.5883,3.7e-4 -15.55041,6.96248 -15.55078,15.55078 3.7e-4,8.58831 6.96247,15.55042 15.55078,15.55079 8.58831,-3.7e-4 15.55042,-6.96248 15.55079,-15.55079 -3.7e-4,-8.58831 -6.96248,-15.55041 -15.55079,-15.55078 z"
           style="opacity:1;fill:#b4b4b4;fill-opacity:1;stroke:none;stroke-width:9.98499966;stroke-linejoin:miter;stroke-miterlimit:4;stroke-dasharray:none;stroke-dashoffset:0;stroke-opacity:1"
           inkscape:connector-curvature="0" />
        <path
           inkscape:connector-curvature="0"
           style="opacity:1;fill:#b4b4b4;fill-opacity:1;stroke:none;stroke-width:9.98499966;stroke-linejoin:miter;stroke-miterlimit:4;stroke-dasharray:none;stroke-dashoffset:0;stroke-opacity:1"
           d="m 401.87873,475.50566 c -8.5883,3.7e-4 -15.55041,6.96248 -15.55078,15.55078 3.7e-4,8.58831 6.96247,15.55042 15.55078,15.55079 8.58831,-3.7e-4 15.55042,-6.96248 15.55079,-15.55079 -3.7e-4,-8.58831 -6.96248,-15.55041 -15.55079,-15.55078 z"
           id="path8158"
           sodipodi:nodetypes="ccccc" />
      </g>
    </g>
  </g>
</svg>
