<svg xmlns="http://www.w3.org/2000/svg" width="100" height="60" viewBox="0 0 26.46 15.88"><g transform="matrix(4.75217 0 0 4.75217 -.21 -1383.33)"><path fill="#dedede" d="M2.1 291.31l-.38.79c-.04.07-1.7.98-1.67 1.13.03.15 2.15 1.1 2.24 1.08.1-.03-.19-1.93-.15-2l.38-.8z" paint-order="stroke fill markers"/><path fill="#b4b4b4" d="M.23 293.22c0 .04 1.86.92 1.91.9.06-.02.01-.8-.05-.85-.05-.05-1.85-.11-1.86-.05z"/><circle cx="1.93" cy="293.78" r=".09" fill="#dedede" paint-order="stroke fill markers"/><ellipse cx="1.67" cy="293.46" fill="#dedede" paint-order="stroke fill markers" rx=".1" ry=".09"/><ellipse cx="2.02" cy="293.44" fill="#dedede" paint-order="stroke fill markers" rx=".07" ry=".06"/></g><g fill="#b4b4b4"><path style="line-height:normal;text-indent:0;text-align:start;text-decoration-line:none;text-decoration-style:solid;text-decoration-color:#000;text-transform:none;isolation:auto;mix-blend-mode:normal" d="M20.31.6c-.25 0-.51.07-.78.2A6.2 6.2 0 0 0 18 1.94c-.4.38-.8.83-1.22 1.34-.43-.5-.85-.95-1.26-1.32A6.2 6.2 0 0 0 13.96.85C13.48.63 13 .57 12.63.8c-.37.22-.54.67-.57 1.2-.03.42.03.93.16 1.5.13-.13.3-.22.49-.25-.1-.48-.14-.9-.12-1.23.03-.43.15-.67.32-.77a.51.51 0 0 1 .27-.06c.15 0 .33.04.56.14.4.18.88.53 1.41 1.02.4.38.84.83 1.28 1.36-.36.46-.72.97-1.07 1.5-.7.05-1.36.1-1.97.2l-.07-.18c-.17.07-.36.1-.55.07l.08.19c-.6.1-1.16.23-1.65.37a6.2 6.2 0 0 0-1.76.76c-.43.3-.73.67-.73 1.1 0 .44.3.81.73 1.11.44.3 1.03.55 1.76.76.5.15 1.08.28 1.7.38-.22.6-.4 1.16-.52 1.67a6.2 6.2 0 0 0-.22 1.9c.04.53.21.97.6 1.19.37.22.84.15 1.32-.08.42-.2.86-.52 1.34-.95a.9.9 0 0 1-.4-.33l-.01-.02c-.43.38-.83.66-1.16.82-.4.19-.66.2-.83.1-.17-.1-.3-.33-.33-.77-.03-.43.04-1.03.2-1.73.14-.52.32-1.1.56-1.71.6.08 1.26.14 1.94.18.36.54.74 1.05 1.1 1.51l-.08.1c.15.1.28.24.37.4l.06-.08c.43.5.85.95 1.26 1.32.55.52 1.07.9 1.55 1.11.48.22.95.28 1.33.06.37-.23.54-.67.57-1.2a6.2 6.2 0 0 0-.25-1.9c-.14-.49-.32-1.03-.54-1.6.6-.1 1.16-.22 1.65-.37a6.2 6.2 0 0 0 1.75-.76c.44-.3.73-.67.73-1.1 0-.44-.3-.81-.73-1.11a5.9 5.9 0 0 0-1.57-.7c0 .14-.01.29-.07.43l-.03.09c.58.18 1.05.4 1.37.62.36.25.5.48.5.67 0 .19-.14.42-.5.66-.36.25-.9.5-1.6.7-.5.14-1.07.27-1.7.37-.25-.57-.53-1.16-.85-1.76.3-.59.56-1.16.79-1.71 0-.25.1-.5.27-.7.19-.52.34-1.02.46-1.48a6.2 6.2 0 0 0 .22-1.9c-.04-.53-.22-.97-.6-1.19-.16-.1-.34-.13-.54-.13zm.05.52c.09 0 .17.03.23.06.16.1.3.34.33.77.03.44-.04 1.03-.2 1.73-.14.52-.32 1.1-.56 1.72-.6-.09-1.26-.15-1.94-.18-.37-.55-.74-1.05-1.1-1.52.42-.53.84-1 1.24-1.38.52-.5 1-.85 1.4-1.04.25-.11.44-.16.6-.16zm-3.59 3.01c.26.34.53.69.79 1.06a27.47 27.47 0 0 0-1.54 0l.75-1.06zm.03 1.58c.39 0 .76.01 1.13.03A26.43 26.43 0 0 1 19.1 7.7a26.42 26.42 0 0 1-1.16 2 26.44 26.44 0 0 1-2.27 0 26.44 26.44 0 0 1-1.18-1.96 26.43 26.43 0 0 1 1.16-2.01c.37-.02.75-.03 1.14-.03zm1.79.06c.47.04.93.08 1.37.14-.17.4-.35.8-.56 1.22a27.45 27.45 0 0 0-.81-1.36zm-3.59 0a27.47 27.47 0 0 0-.8 1.4c-.22-.42-.42-.85-.6-1.25.45-.06.92-.11 1.4-.15zM13.05 6c.24.56.53 1.15.84 1.75-.3.59-.56 1.16-.78 1.72-.65-.1-1.25-.24-1.76-.39a5.78 5.78 0 0 1-1.6-.69c-.36-.24-.5-.47-.5-.66 0-.2.14-.42.5-.67.35-.25.9-.49 1.6-.69.5-.15 1.07-.27 1.7-.37zm6.36 2.28c.22.43.42.85.6 1.26-.45.06-.92.1-1.4.14a27.46 27.46 0 0 0 .8-1.4zm-5.2.04a27.44 27.44 0 0 0 .81 1.36c-.47-.03-.93-.08-1.37-.14.17-.4.35-.8.56-1.22zm6.01 1.73c.24.59.43 1.15.56 1.65.18.7.26 1.3.24 1.73-.03.43-.15.67-.32.77-.16.1-.43.1-.83-.08-.4-.18-.89-.53-1.41-1.02-.41-.37-.84-.83-1.28-1.36.36-.46.72-.97 1.07-1.5.7-.04 1.35-.1 1.97-.2zm-2.63.21c-.25.37-.5.73-.75 1.06-.27-.33-.53-.69-.79-1.06a27.47 27.47 0 0 0 1.54 0z" color="#000" font-family="sans-serif" font-weight="400" overflow="visible" white-space="normal"/><path d="M12.92 3.45a.83.83 0 0 0-.83.83.83.83 0 0 0 .83.83.83.83 0 0 0 .83-.83.83.83 0 0 0-.83-.83zm8.62 1.7a.83.83 0 0 0-.83.83.83.83 0 0 0 .83.83.83.83 0 0 0 .83-.83.83.83 0 0 0-.83-.83zm-5.67 6.77a.83.83 0 0 0-.83.83.83.83 0 0 0 .83.83.83.83 0 0 0 .83-.83.83.83 0 0 0-.83-.83zM16.75 6.91a.83.83 0 1 0 0 1.66.83.83 0 0 0 0-1.66z"/><path d="M17.3 7.99a.83.83 0 1 0 0 1.66.83.83 0 0 0 0-1.66z"/><path d="M18 6.86a.83.83 0 1 0 0 1.66.83.83 0 0 0 0-1.66z"/><path d="M17.34 5.9a.83.83 0 1 0 0 1.67.83.83 0 0 0 0-1.66z"/><path d="M16.29 5.83a.83.83 0 1 0 0 1.66.83.83 0 0 0 0-1.66z"/><path d="M15.58 6.94a.83.83 0 1 0 0 1.65.83.83 0 0 0 0-1.65z"/><path d="M16.26 7.9a.83.83 0 1 0 0 1.65.83.83 0 0 0 0-1.66z"/></g></svg>