<svg xmlns="http://www.w3.org/2000/svg" xmlns:xlink="http://www.w3.org/1999/xlink" width="469.61" height="125.69" viewBox="0 0 124.25 33.25"><defs><linearGradient id="d"><stop offset="0" stop-color="#8b8b8b"/><stop offset="1" stop-color="#b4b4b4" stop-opacity="0"/></linearGradient><linearGradient id="c"><stop offset="0" stop-color="#0277b1"/><stop offset="1" stop-color="#039be5" stop-opacity=".26"/></linearGradient><linearGradient id="b"><stop offset="0" stop-color="#039be5"/><stop offset="1" stop-color="#0280bc"/></linearGradient><linearGradient id="a" x1="34.4" x2="47.49" y1="286.09" y2="296.87" gradientTransform="translate(0 -71.58)" gradientUnits="userSpaceOnUse" xlink:href="#b"/><linearGradient id="e" x1="115.65" x2="176.95" y1="29.13" y2="125.82" gradientUnits="userSpaceOnUse" xlink:href="#c"/><linearGradient id="f" x1="23.69" x2="98.21" y1="27.43" y2="118.94" gradientUnits="userSpaceOnUse" xlink:href="#d"/></defs><path fill="#0278b1" d="M22.18 17.55c-.57 1.62-.71 3.06 1.1 4.3.33.3.47.3.82.23.34-.06.84-.31 1.4-.6.55-.3 1.17-.63 1.92-.7.76-.09 1.65.2 2.31.93 2.03 3.1 1.44 5.03-.34 7.75l.85.8h19.7V3.8L49.1 3z" paint-order="stroke fill markers"/><path fill="#039be5" d="M29.4 3c.16.49.47 1.56.66 2.82.26 1.72.36 3.84-.81 5.4a2.82 2.82 0 0 1-2.27 1.12c-.78-.01-1.47-.27-2.1-.48a6.07 6.07 0 0 0-1.54-.39c-.37 0-.51.02-.79.43-.66.96-1.18 2.96-1.22 4.85-.04 1.9.44 3.66 1.1 4.3.33.3.48.3.82.24.35-.07.84-.32 1.4-.6.55-.3 1.17-.63 1.93-.71.76-.09 1.64.2 2.3.93 1.37 1.49 1.34 3.7 1.13 5.51a19.4 19.4 0 0 1-.62 3.04H49.1V3z" paint-order="stroke fill markers"/><path fill="#8f8f8f" d="M3 29.46l.85.8h24.68c0-.1.02-.18.04-.26 0 0 .44-1.36.63-2.98.19-1.61.04-3.39-.7-4.19-.38-.42-1.1-1.21-1.44-1.18-.32.04-.26 1.03-.8 1.3-.53.28-1.12.63-1.84.77a2.62 2.62 0 0 1-2.28-.67c-1.34-1.26-1.68-3.4-1.63-5.54.05-2.14.53-4.31 1.51-5.76a2.63 2.63 0 0 1 2.19-1.15c.76.01 1.43.27 2.06.48.62.21 1.18.38 1.58.39.4 0 .6-.05.92-.47.65-.86.72-2.6.5-4.13-.24-1.54-.69-2.8-.69-2.8a.83.83 0 0 1-.05-.27l-.85-.8z"/><path fill="#b4b4b4" d="M3 3v26.46h24.69a.83.83 0 0 1 .04-.26s.44-1.36.63-2.97c.18-1.62.03-3.4-.7-4.2-.39-.41-.58-.43-.9-.4-.33.04-.8.25-1.34.53s-1.13.62-1.84.76a2.62 2.62 0 0 1-2.3-.66c-1.32-1.27-1.66-3.4-1.62-5.55.05-2.14.53-4.3 1.51-5.75a2.63 2.63 0 0 1 2.2-1.15c.76 0 1.43.26 2.05.47.62.21 1.19.39 1.58.4.4 0 .6-.05.92-.47.66-.87.73-2.6.5-4.14-.24-1.53-.68-2.79-.68-2.79a.83.83 0 0 1-.06-.28z"/><path fill="url(#e)" d="M151.7 28.74l-32.57 3.82.17.23-2.32.09 7.84 12.05h-11.9l7.37 11.33-6.75.93 1.47 2.11-2.85 1.12 11.86 18.23-5.84 3.85 12.46 19.14h45.25v-43.8l-18.68-28.7-4.9.72z" paint-order="stroke fill markers" transform="matrix(.26458 0 0 .26458 2.56 2.56)"/><path fill="url(#f)" d="M22.53 32.56L6.02 35.31 18.2 54.05l5.08 21.66 16.87 25.94h54.79a3.15 3.15 0 0 1 .15-.98s1.66-5.13 2.38-11.24c.12-1.06.19-2.14.23-3.22L89 72.81c-.8.34-1.69.76-2.62 1.25-2.02 1.05-4.24 2.34-6.95 2.89-2.7.54-6.1-.1-8.65-2.52-5.03-4.78-6.32-12.86-6.14-20.95.11-5.05.86-10.14 2.3-14.58l-4.13-6.34-6.09 1.17-.74-1.17-.38 1.39-7.13 1.36 4.73 7.26-1.03 3.68-8.9-13.69-16.93 2.75 7.85 12.06-.75 1.95z" transform="matrix(.26458 0 0 .26458 2.56 2.56)"/><g fill="#fff" font-weight="400" word-spacing="0"><g style="line-height:1.25;-inkscape-font-specification:'Century Schoolbook L'"><path stroke-width=".4" d="M9.47 19.54L7.24 12.6a1.53 1.53 0 0 1-.08-.38c0-.23.17-.31.67-.31h.7v-.73H4.15v.73h.3c.64 0 .73.06.92.6L8.73 22.6h.66l2.3-7.7 2.5 7.7h.64l2.73-9.1a3 3 0 0 1 .41-1.03c.25-.38.64-.56 1.15-.56h.06v-.73h-3.8v.73h.13c.9 0 1.33.26 1.33.8 0 .16-.03.38-.09.55l-1.86 6.28-2.14-6.78c-.09-.3-.1-.33-.1-.43 0-.14.09-.28.23-.34.17-.07.28-.08.88-.08h.25v-.73H9.53v.73h.36c.63 0 .85.1.97.48l.4 1.2z" aria-label="W" font-family="Century Schoolbook L" font-size="16.07" letter-spacing="0" style="-inkscape-font-specification:'Century Schoolbook L'"/></g><path stroke-width=".42" d="M33.16 10.27q1.33 0 2.7-.03 1.4-.03 2.73-.13 1.34-.1 2.56-.27 1.25-.17 2.29-.46l.72.9q-1.2.24-2.43.43-1.21.17-2.44.29v2.5h1.56q.25-.54.49-1.13.25-.59.49-1.3l1.02.36-.44 1.08q-.21.53-.42.99h3.2v.95h-5.14q.57.47 1.26.91.7.42 1.44.79.75.37 1.51.65.77.29 1.51.46l-.44 1.07-.77-.25q-.37-.13-.74-.29v6.43h-1.1v-.72h-7.8v.9h-1.09v-6.47q-.38.18-.78.33-.4.16-.81.29l-.44-1.04q1.56-.45 3.04-1.23 1.5-.79 2.65-1.83h-5.05v-.95h3.06l-.39-.83-.42-.85 1-.4q.28.55.5 1.05.23.49.46 1.03h1.53v-2.4q-1.16.08-2.31.11-1.16.04-2.35.05zM39.3 22.6h3.43v-1.82h-3.43zm-4.36 0h3.25v-1.82h-3.25zm4.36-4.3v1.64h3.43V18.3zm-4.36 1.64h3.25V18.3h-3.25zm7.94-2.57q-1.01-.47-1.92-1.05-.9-.6-1.66-1.36v2.41zm-4.69-2.35q-.69.7-1.5 1.28-.81.59-1.74 1.07h3.24z" aria-label="番" style="fill:#ffffff;fill-opacity:1;stroke-width:0.42313036" font-family="Noto Sans" font-size="16.93" letter-spacing="-42.31"/></g><g font-family="Lato" font-size="7.07" font-weight="400" letter-spacing="0" word-spacing="0"><g fill="#039be5"><path d="M53.41 5.04h1.18q.2 0 .32.1.12.09.16.23l2.17 7.3q.06.19.1.42l.1.47.1-.47q.05-.24.12-.43l2.46-7.29q.05-.12.17-.22.13-.11.32-.11h.4q.2 0 .31.1.13.09.18.23l2.45 7.3q.13.37.23.86l.08-.46q.04-.22.1-.4l2.17-7.3q.04-.13.16-.23.14-.1.32-.1h1.1l-3.27 10.48h-1.27l-2.66-8q-.08-.22-.14-.52l-.08.28-.06.25-2.67 8h-1.28zM70.75 8.11v7.41h-1.3v-7.4zm.29-2.33q0 .2-.08.36-.07.16-.2.3-.13.12-.3.2-.17.07-.36.07-.19 0-.35-.08-.17-.07-.3-.2-.12-.13-.2-.29-.07-.17-.07-.36 0-.19.07-.35.08-.18.2-.3.13-.14.3-.2.16-.08.35-.08.2 0 .36.07.17.07.3.2.13.13.2.3.08.17.08.36zM74.4 4.75v6.34h.33q.15 0 .24-.04.1-.04.22-.17l2.34-2.5q.1-.12.22-.2.1-.07.3-.07h1.18l-2.73 2.9-.2.23q-.1.1-.23.16l.24.2.2.26 2.9 3.66h-1.17q-.16 0-.28-.06-.11-.06-.21-.2l-2.44-3.03q-.1-.15-.22-.2-.1-.05-.33-.05h-.36v3.54h-1.31V4.75zM82.15 8.11v7.41h-1.3v-7.4zm.3-2.33q0 .2-.09.36-.07.16-.2.3-.13.12-.3.2-.16.07-.35.07-.2 0-.36-.08-.16-.07-.3-.2-.12-.13-.2-.29-.06-.17-.06-.36 0-.19.07-.35.07-.18.2-.3.13-.14.29-.2.17-.08.36-.08.19 0 .36.07.16.07.29.2.13.13.2.3.08.17.08.36z" style="line-height:1.25;-inkscape-font-specification:Lato"/></g><g fill="#8b8b8b"><path d="M61.96 17.47v1.24h-3.52v9.68h-1.48V18.7H53.4v-1.24zM62.08 28.39v-7.72h.78q.22 0 .3.08.09.09.12.3l.09 1.2q.4-.81.98-1.26.58-.46 1.37-.46.32 0 .58.08.26.07.48.2l-.18 1q-.05.2-.24.2-.1 0-.32-.07-.22-.08-.62-.08-.7 0-1.19.42-.47.4-.8 1.2v4.9zM73.59 28.39h-.6q-.2 0-.33-.06-.12-.06-.16-.26l-.15-.72q-.3.28-.6.5-.28.21-.6.36-.32.15-.69.22-.36.08-.8.08-.45 0-.84-.12-.4-.13-.68-.38-.3-.25-.47-.64-.17-.38-.17-.91 0-.46.26-.88.25-.42.8-.75.57-.33 1.48-.53.9-.22 2.21-.25v-.6q0-.9-.39-1.36-.38-.46-1.13-.46-.5 0-.84.13-.34.12-.59.28l-.42.28q-.18.12-.35.12-.14 0-.25-.07-.1-.07-.16-.18l-.24-.43q.64-.62 1.38-.92.74-.3 1.64-.3.64 0 1.15.2.5.22.84.6.35.38.52.92.18.54.18 1.19zm-3.52-.83q.35 0 .65-.07.3-.08.56-.2.26-.14.5-.34.24-.19.47-.43v-1.6q-.93.02-1.59.15-.66.1-1.07.3-.4.19-.6.45-.18.26-.18.58 0 .3.1.52.1.23.26.37.17.14.4.2.23.07.5.07zM75.66 28.39v-7.72h.8q.3 0 .37.28l.1.84q.5-.56 1.13-.9.62-.34 1.44-.34.63 0 1.11.2.49.22.8.6.34.38.5.93.17.54.17 1.2v4.9h-1.36v-4.9q0-.88-.4-1.36-.4-.5-1.22-.5-.6 0-1.13.3-.52.29-.96.78v5.69zM88.56 21.94q-.1.17-.28.17-.12 0-.26-.09l-.36-.18q-.2-.1-.5-.19-.28-.09-.68-.09-.34 0-.62.1-.27.07-.47.23-.2.15-.3.36-.1.2-.1.43 0 .3.17.5.18.2.46.34t.64.26q.36.1.73.23.38.13.74.28.36.15.64.38t.45.56q.17.33.17.8 0 .53-.19.99-.19.45-.56.78-.37.33-.91.52-.55.19-1.25.19-.81 0-1.47-.26-.65-.27-1.11-.68l.32-.52q.06-.1.14-.15.09-.05.23-.05.13 0 .29.1l.36.24q.22.13.53.24.3.1.77.1.4 0 .7-.1.3-.1.5-.28.2-.17.28-.4.1-.23.1-.49 0-.32-.17-.52-.17-.22-.45-.36-.29-.15-.65-.26l-.74-.24q-.37-.12-.74-.27-.36-.16-.64-.4-.28-.23-.46-.58-.16-.35-.16-.84 0-.45.18-.85.18-.41.53-.72.35-.3.86-.5.51-.17 1.17-.17.76 0 1.36.24.61.24 1.05.66zM92.26 17.16V28.4H90.9V17.16zM100.32 28.39h-.6q-.2 0-.32-.06-.13-.06-.16-.26l-.16-.72q-.3.28-.6.5-.28.21-.6.36-.32.15-.69.22-.35.08-.8.08-.45 0-.84-.12-.4-.13-.68-.38-.29-.25-.47-.64-.16-.38-.16-.91 0-.46.25-.88t.8-.75q.57-.33 1.48-.53.9-.22 2.21-.25v-.6q0-.9-.38-1.36-.39-.46-1.14-.46-.5 0-.84.13-.33.12-.58.28-.25.15-.43.28-.18.12-.35.12-.14 0-.25-.07-.1-.07-.16-.18l-.24-.43q.64-.62 1.38-.92.74-.3 1.64-.3.65 0 1.15.2.5.22.84.6.35.38.52.92.18.54.18 1.19zm-3.52-.83q.36 0 .65-.07.3-.08.56-.2.27-.14.5-.34.25-.19.47-.43v-1.6q-.93.02-1.59.15-.65.1-1.07.3-.4.19-.6.45-.18.26-.18.58 0 .3.1.52.1.23.27.37.16.14.4.2.22.07.49.07zM104.73 28.51q-.92 0-1.41-.51-.49-.51-.49-1.47V21.8h-.93q-.12 0-.2-.07-.09-.07-.09-.22v-.54l1.27-.16.3-2.39q.02-.11.1-.18.1-.08.22-.08h.69v2.66h2.2v.98h-2.2v4.64q0 .48.23.72.24.24.61.24.22 0 .37-.06.16-.06.27-.13.12-.06.2-.12.08-.06.14-.06.1 0 .19.13l.4.65q-.36.33-.85.52-.5.18-1.02.18zM111.2 20.55q.84 0 1.52.28.69.28 1.16.8.48.52.73 1.26.26.73.26 1.63 0 .92-.26 1.65-.25.73-.73 1.25-.47.52-1.16.8-.68.27-1.52.27-.85 0-1.53-.27-.68-.28-1.16-.8-.48-.52-.74-1.25t-.26-1.65q0-.9.26-1.63.26-.74.74-1.26t1.16-.8q.68-.28 1.53-.28zm0 6.89q1.14 0 1.7-.77.57-.77.57-2.14 0-1.38-.56-2.15-.57-.77-1.71-.77-.58 0-1 .2-.43.2-.72.57-.29.38-.43.92-.14.55-.14 1.23 0 .69.14 1.23t.43.91q.29.37.71.57.43.2 1 .2zM116.56 28.39v-7.72h.77q.23 0 .31.08.08.09.11.3l.1 1.2q.4-.81.97-1.26.59-.46 1.37-.46.32 0 .58.08.26.07.48.2l-.17 1q-.06.2-.24.2-.1 0-.33-.07-.22-.08-.61-.08-.71 0-1.2.42-.47.4-.79 1.2v4.9z" style="line-height:1.25;-inkscape-font-specification:Lato"/></g></g></svg>