<svg xmlns="http://www.w3.org/2000/svg" xmlns:xlink="http://www.w3.org/1999/xlink" width="200.12" height="150.15" viewBox="0 0 52.95 39.73"><defs><linearGradient id="d"><stop offset="0" stop-color="#8b8b8b"/><stop offset="1" stop-color="#b4b4b4" stop-opacity="0"/></linearGradient><linearGradient id="c"><stop offset="0" stop-color="#0277b1"/><stop offset="1" stop-color="#039be5" stop-opacity=".26"/></linearGradient><linearGradient id="b"><stop offset="0" stop-color="#039be5"/><stop offset="1" stop-color="#0280bc"/></linearGradient><linearGradient id="a" x1="34.4" x2="47.49" y1="286.09" y2="296.87" gradientTransform="translate(0 -71.58)" gradientUnits="userSpaceOnUse" xlink:href="#b"/><linearGradient id="e" x1="115.65" x2="176.95" y1="29.13" y2="125.82" gradientUnits="userSpaceOnUse" xlink:href="#c"/><linearGradient id="f" x1="23.69" x2="98.21" y1="27.43" y2="118.94" gradientUnits="userSpaceOnUse" xlink:href="#d"/></defs><path fill="#0278b1" d="M22.18 17.55c-.57 1.62-.71 3.06 1.1 4.3.33.3.47.3.82.23.34-.06.84-.31 1.4-.6.55-.3 1.17-.63 1.92-.7.76-.09 1.65.2 2.31.93 2.03 3.1 1.44 5.03-.34 7.75l.85.8h19.7V3.8L49.1 3z" paint-order="stroke fill markers"/><path fill="#039be5" d="M29.4 3c.16.49.47 1.56.66 2.82.26 1.72.36 3.84-.81 5.4a2.82 2.82 0 0 1-2.27 1.12c-.78-.01-1.47-.27-2.1-.48a6.07 6.07 0 0 0-1.54-.39c-.37 0-.51.02-.79.43-.66.96-1.18 2.96-1.22 4.85-.04 1.9.44 3.66 1.1 4.3.33.3.48.3.82.24.35-.07.84-.32 1.4-.6.55-.3 1.17-.63 1.93-.71.76-.09 1.64.2 2.3.93 1.37 1.49 1.34 3.7 1.13 5.51a19.4 19.4 0 0 1-.62 3.04H49.1V3z" paint-order="stroke fill markers"/><path fill="#8f8f8f" d="M3 29.46l.85.8h24.68c0-.1.02-.18.04-.26 0 0 .44-1.36.63-2.98.19-1.61.04-3.39-.7-4.19-.38-.42-1.1-1.21-1.44-1.18-.32.04-.26 1.03-.8 1.3-.53.28-1.12.63-1.84.77a2.62 2.62 0 0 1-2.28-.67c-1.34-1.26-1.68-3.4-1.63-5.54.05-2.14.53-4.31 1.51-5.76a2.63 2.63 0 0 1 2.19-1.15c.76.01 1.43.27 2.06.48.62.21 1.18.38 1.58.39.4 0 .6-.05.92-.47.65-.86.72-2.6.5-4.13-.24-1.54-.69-2.8-.69-2.8a.83.83 0 0 1-.05-.27l-.85-.8z"/><path fill="#b4b4b4" d="M3 3v26.46h24.69a.83.83 0 0 1 .04-.26s.44-1.36.63-2.97c.18-1.62.03-3.4-.7-4.2-.39-.41-.58-.43-.9-.4-.33.04-.8.25-1.34.53s-1.13.62-1.84.76a2.62 2.62 0 0 1-2.3-.66c-1.32-1.27-1.66-3.4-1.62-5.55.05-2.14.53-4.3 1.51-5.75a2.63 2.63 0 0 1 2.2-1.15c.76 0 1.43.26 2.05.47.62.21 1.19.39 1.58.4.4 0 .6-.05.92-.47.66-.87.73-2.6.5-4.14-.24-1.53-.68-2.79-.68-2.79a.83.83 0 0 1-.06-.28z"/><path fill="url(#e)" d="M151.7 28.74l-32.57 3.82.17.23-2.32.09 7.84 12.05h-11.9l7.37 11.33-6.75.93 1.47 2.11-2.85 1.12 11.86 18.23-5.84 3.85 12.46 19.14h45.25v-43.8l-18.68-28.7-4.9.72z" paint-order="stroke fill markers" transform="matrix(.26458 0 0 .26458 2.56 2.56)"/><path fill="url(#f)" d="M22.53 32.56L6.02 35.31 18.2 54.05l5.08 21.66 16.87 25.94h54.79a3.15 3.15 0 0 1 .15-.98s1.66-5.13 2.38-11.24c.12-1.06.19-2.14.23-3.22L89 72.81c-.8.34-1.69.76-2.62 1.25-2.02 1.05-4.24 2.34-6.95 2.89-2.7.54-6.1-.1-8.65-2.52-5.03-4.78-6.32-12.86-6.14-20.95.11-5.05.86-10.14 2.3-14.58l-4.13-6.34-6.09 1.17-.74-1.17-.38 1.39-7.13 1.36 4.73 7.26-1.03 3.68-8.9-13.69-16.93 2.75 7.85 12.06-.75 1.95z" transform="matrix(.26458 0 0 .26458 2.56 2.56)"/><g fill="#fff" font-weight="400" word-spacing="0"><g style="line-height:1.25;-inkscape-font-specification:'Century Schoolbook L'"><path d="M9.47 19.54L7.24 12.6a1.53 1.53 0 0 1-.08-.38c0-.23.17-.31.67-.31h.7v-.73H4.15v.73h.3c.64 0 .73.06.92.6L8.73 22.6h.66l2.3-7.7 2.5 7.7h.64l2.73-9.1a3 3 0 0 1 .41-1.03c.25-.38.64-.56 1.15-.56h.06v-.73h-3.8v.73h.13c.9 0 1.33.26 1.33.8 0 .16-.03.38-.09.55l-1.86 6.28-2.14-6.78c-.09-.3-.1-.33-.1-.43 0-.14.09-.28.23-.34.17-.07.28-.08.88-.08h.25v-.73H9.53v.73h.36c.63 0 .85.1.97.48l.4 1.2z" style="-inkscape-font-specification:'Century Schoolbook L'" stroke-width=".4" aria-label="W" font-family="Century Schoolbook L" font-size="16.07" letter-spacing="0"/></g><path stroke-width=".42" d="M33.16 10.27q1.33 0 2.7-.03 1.4-.03 2.73-.13 1.34-.1 2.56-.27 1.25-.17 2.29-.46l.72.9q-1.2.24-2.43.43-1.21.17-2.44.29v2.5h1.56q.25-.54.49-1.13.25-.59.49-1.3l1.02.36-.44 1.08q-.21.53-.42.99h3.2v.95h-5.14q.57.47 1.26.91.7.42 1.44.79.75.37 1.51.65.77.29 1.51.46l-.44 1.07-.77-.25q-.37-.13-.74-.29v6.43h-1.1v-.72h-7.8v.9h-1.09v-6.47q-.38.18-.78.33-.4.16-.81.29l-.44-1.04q1.56-.45 3.04-1.23 1.5-.79 2.65-1.83h-5.05v-.95h3.06l-.39-.83-.42-.85 1-.4q.28.55.5 1.05.23.49.46 1.03h1.53v-2.4q-1.16.08-2.31.11-1.16.04-2.35.05zM39.3 22.6h3.43v-1.82h-3.43zm-4.36 0h3.25v-1.82h-3.25zm4.36-4.3v1.64h3.43V18.3zm-4.36 1.64h3.25V18.3h-3.25zm7.94-2.57q-1.01-.47-1.92-1.05-.9-.6-1.66-1.36v2.41zm-4.69-2.35q-.69.7-1.5 1.28-.81.59-1.74 1.07h3.24z" aria-label="番" font-family="Noto Sans" font-size="16.93" letter-spacing="-42.31"/></g><g><g aria-label="WikiTranslator" style="line-height:1.25;-inkscape-font-specification:Lato" stroke-width=".18" font-family="Lato" font-size="7.07" font-weight="400" letter-spacing="0" word-spacing="0"><path fill="#039be5" d="M3.47 31.6h.57q.09 0 .15.05t.08.12L5.3 35.3l.05.2.05.23.05-.23.06-.2 1.19-3.52q.02-.06.08-.1.06-.06.15-.06h.2q.09 0 .15.04.06.05.08.12l1.18 3.52q.07.18.12.42l.04-.22.04-.2 1.05-3.52q.02-.06.08-.11t.15-.05h.53l-1.58 5.06h-.61l-1.28-3.86-.07-.25-.04.13-.03.12-1.29 3.86h-.61zM11.84 33.1v3.57h-.63V33.1zm.14-1.13q0 .1-.04.17-.04.08-.1.14-.06.06-.14.1-.08.03-.17.03-.1 0-.18-.03-.08-.04-.14-.1-.06-.06-.1-.14-.03-.08-.03-.17 0-.1.04-.17.03-.09.1-.15.05-.06.13-.1.08-.03.18-.03.09 0 .17.03.08.04.14.1.06.06.1.15.04.08.04.17zM13.6 31.47v3.06h.16q.07 0 .12-.02l.1-.08 1.13-1.21.1-.1q.06-.03.15-.03h.57l-1.32 1.4-.1.11q-.04.05-.1.08.06.04.11.1l.1.12 1.4 1.77h-.57q-.08 0-.13-.03t-.1-.1l-1.18-1.46q-.05-.07-.1-.1-.06-.02-.17-.02h-.17v1.71h-.63v-5.2zM17.34 33.1v3.57h-.63V33.1zm.14-1.13q0 .1-.04.17-.03.08-.1.14-.05.06-.14.1-.08.03-.17.03-.1 0-.17-.03-.08-.04-.14-.1-.06-.06-.1-.14-.03-.08-.03-.17 0-.1.03-.17.04-.09.1-.15.06-.06.14-.1.08-.03.17-.03.1 0 .17.03.09.04.15.1.06.06.1.15.03.08.03.17z"/><path fill="#8b8b8b" d="M22 31.6v.58h-1.64v4.5h-.68v-4.5h-1.65v-.57zM22.05 36.67V33.1h.36q.1 0 .14.04.04.04.06.14l.04.55q.18-.37.45-.58.27-.21.64-.21.15 0 .27.03.12.04.22.1l-.08.47q-.03.08-.11.08l-.15-.03q-.1-.03-.3-.03-.32 0-.54.19-.22.19-.37.55v2.28zM27.38 36.67h-.27q-.1 0-.15-.03-.06-.03-.08-.12l-.07-.33-.27.23q-.14.1-.29.17-.14.07-.31.1-.17.04-.37.04-.21 0-.4-.06-.18-.06-.31-.18-.14-.11-.22-.29-.07-.18-.07-.42 0-.21.11-.4.12-.2.38-.36.26-.15.68-.25.42-.1 1.03-.1v-.29q0-.42-.18-.63-.18-.21-.53-.21-.23 0-.39.06-.15.05-.27.13l-.2.13q-.08.06-.16.06-.06 0-.11-.04-.05-.03-.08-.08l-.11-.2q.3-.29.64-.43t.76-.14q.3 0 .53.1.23.1.4.27.15.18.23.43.08.25.08.55zm-1.63-.38q.17 0 .3-.04.14-.03.26-.1.13-.05.24-.14l.22-.2v-.75q-.44.01-.74.07-.3.05-.5.14-.19.09-.28.21-.08.12-.08.27 0 .14.05.24.04.1.12.17.08.07.18.1.1.03.23.03zM28.34 36.67V33.1h.38q.13 0 .17.13l.05.4q.23-.27.52-.43.29-.15.66-.15.3 0 .52.1.23.09.37.27.16.18.23.43.08.25.08.55v2.28h-.63V34.4q0-.4-.18-.63-.19-.22-.57-.22-.28 0-.52.13-.24.14-.45.37v2.63zM34.33 33.68q-.05.08-.13.08-.06 0-.13-.04l-.16-.08-.23-.1q-.13-.03-.32-.03-.16 0-.28.04-.13.04-.22.1-.1.08-.14.17-.05.1-.05.2 0 .14.08.23.08.1.21.16.13.07.3.12l.34.11.34.13q.17.07.3.18.13.1.2.26.09.15.09.37 0 .24-.1.45-.08.21-.25.37-.18.15-.43.24t-.58.09q-.37 0-.67-.12-.3-.13-.52-.32l.15-.24.07-.07q.03-.02.1-.02.06 0 .13.05l.17.1q.1.07.25.12.14.05.36.05.18 0 .32-.05t.23-.13q.09-.08.13-.19.05-.1.05-.22 0-.15-.08-.25t-.21-.16q-.13-.08-.3-.12l-.35-.11-.34-.13q-.16-.08-.3-.19-.13-.1-.2-.26-.08-.17-.08-.4 0-.2.08-.39.09-.19.25-.33t.4-.23q.23-.08.54-.08.35 0 .63.1.28.12.49.31zM36.04 31.47v5.2h-.63v-5.2zM39.78 36.67h-.28q-.1 0-.15-.03-.06-.03-.08-.12l-.07-.33-.27.23q-.14.1-.28.17-.15.07-.32.1-.17.04-.37.04-.21 0-.4-.06-.18-.06-.31-.18-.13-.11-.22-.29-.07-.18-.07-.42 0-.21.11-.4.12-.2.38-.36.26-.15.68-.25.42-.1 1.03-.1v-.29q0-.42-.18-.63-.18-.21-.53-.21-.23 0-.39.06-.15.05-.27.13l-.2.13q-.08.06-.16.06-.06 0-.11-.04-.05-.03-.08-.08l-.11-.2q.3-.29.64-.43t.76-.14q.3 0 .53.1.24.1.4.27.15.18.24.43.08.25.08.55zm-1.64-.38q.17 0 .3-.04.15-.03.27-.1.12-.05.23-.14l.22-.2v-.75q-.44.01-.74.07-.3.05-.5.14-.19.09-.27.21-.09.12-.09.27 0 .14.05.24.04.1.12.17.08.07.18.1.11.03.23.03zM41.82 36.73q-.42 0-.65-.24-.23-.24-.23-.68v-2.2h-.43q-.06 0-.1-.02-.03-.04-.03-.1v-.26l.58-.07.15-1.11q0-.05.04-.08.04-.04.1-.04h.32v1.23h1.02v.46h-1.02v2.15q0 .22.1.33.12.11.3.11.1 0 .16-.02l.13-.06.09-.06.06-.03q.05 0 .1.06l.18.3q-.17.15-.4.24t-.47.09zM44.82 33.04q.4 0 .7.13.32.13.54.37.23.24.34.58.12.34.12.76t-.12.76q-.11.34-.34.58-.22.24-.53.37-.32.13-.71.13-.4 0-.71-.13-.31-.13-.54-.37-.22-.24-.34-.58-.12-.34-.12-.76t.12-.76q.12-.34.34-.58.23-.24.54-.37.32-.13.71-.13zm0 3.19q.53 0 .8-.35.25-.36.25-1t-.26-1q-.26-.35-.79-.35-.27 0-.47.1-.2.08-.33.26-.13.17-.2.42-.06.26-.06.57 0 .32.06.57.07.25.2.43.14.17.33.26.2.09.47.09zM47.3 36.67V33.1h.36q.1 0 .15.04.03.04.05.14l.04.55q.18-.37.45-.58.28-.21.64-.21.15 0 .27.03.12.04.22.1l-.08.47q-.03.08-.11.08l-.15-.03q-.1-.03-.29-.03-.33 0-.55.19-.22.19-.37.55v2.28z"/></g></g></svg>